<svg width="60" height="60" fill="none" xmlns="http://www.w3.org/2000/svg"><g clip-path="url(#clip0)" fill="#fff"><path d="M30 27c-.146 0-.291-.032-.426-.095l-17-8a1.001 1.001 0 010-1.81l17-8a1 1 0 01.852 0l17 8a1.001 1.001 0 010 1.81l-17 8c-.135.063-.28.095-.426.095zm-14.651-9L30 24.895 44.651 18 30 11.105 15.349 18z"/><path d="M30 35c-.153 0-.307-.035-.447-.105l-12-6A1.001 1.001 0 0117 28v-7.647a1 1 0 011.425-.905L30 24.895l11.574-5.447a1 1 0 011.426.905V28c0 .379-.214.725-.553.895l-12 6c-.14.07-.294.105-.447.105zm-11-7.618l11 5.5 11-5.5v-5.453l-10.574 4.976a1 1 0 01-.852 0L19 21.929v5.453zM47 19H30a1 1 0 010-2h17a1 1 0 010 2z"/><path d="M47 28a1 1 0 01-1-1v-9a1 1 0 012 0v9a1 1 0 01-1 1zm-17-7a1 1 0 01-1-1v-4a1 1 0 012 0v4a1 1 0 01-1 1z"/><path d="M44.999 31a1 1 0 01-.831-1.555l2-3a1 1 0 011.664 1.11l-2 3a1 1 0 01-.833.445z"/><path d="M49.001 31a1 1 0 01-.833-.445l-2-3a1.001 1.001 0 011.664-1.11l2 3A1.001 1.001 0 0149.001 31zM30 30a1 1 0 01-1-1v-3a1 1 0 012 0v3a1 1 0 01-1 1z"/><path d="M59 39H1a1 1 0 01-1-1V5.001A4.006 4.006 0 014.001 1h51.998A4.006 4.006 0 0160 5.001V38a1 1 0 01-1 1zM2 37h56V5.001A2.002 2.002 0 0055.999 3H4.001A2.002 2.002 0 002 5.001V37z"/><path d="M55.999 47H4.001A4.006 4.006 0 010 42.999V38a1 1 0 011-1h58a1 1 0 011 1v4.999A4.006 4.006 0 0155.999 47zM2 39v3.999C2 44.103 2.897 45 4.001 45h51.998A2.002 2.002 0 0058 42.999V39H2z"/><path d="M33 43h-6a1 1 0 010-2h6a1 1 0 010 2zm22-4H5a1 1 0 01-1-1V6a1 1 0 011-1h50a1 1 0 011 1v32a1 1 0 01-1 1zM6 37h48V7H6v30zm37 22H17c-1.654 0-3-1.346-3-3s1.346-3 3-3h26c1.654 0 3 1.346 3 3s-1.346 3-3 3zm-26-4c-.551 0-1 .449-1 1 0 .551.449 1 1 1h26c.551 0 1-.449 1-1 0-.551-.449-1-1-1H17z"/><path d="M41 55H19a1 1 0 010-2c3.318 0 5-2.355 5-7a1 1 0 011-1h10a1 1 0 011 1c0 4.645 1.682 7 5 7a1 1 0 010 2zm-17.129-2H36.13c-1.232-1.364-1.957-3.395-2.102-6h-8.055c-.146 2.605-.87 4.636-2.102 6z"/></g><defs><clipPath id="clip0"><path fill="#fff" d="M0 0h60v60H0z"/></clipPath></defs></svg>