<svg width="60" height="60" fill="none" xmlns="http://www.w3.org/2000/svg"><path d="M20.606 47.44a.879.879 0 00-.879.878v3.758a.879.879 0 001.758 0v-3.758a.879.879 0 00-.879-.879z" fill="url(#paint0_linear)"/><path d="M39.394 47.44a.879.879 0 00-.88.878v3.758a.879.879 0 001.759 0v-3.758a.879.879 0 00-.88-.879z" fill="url(#paint1_linear)"/><path d="M13.484 28.744c-2.041-1.02-5.868-1.032-6.03-1.032a.879.879 0 000 1.758c.99 0 3.859.154 5.244.846a.875.875 0 001.179-.393.879.879 0 00-.393-1.179z" fill="url(#paint2_linear)"/><path d="M4.636 45.56a.879.879 0 00-.878.88v5.636a.879.879 0 001.757 0v-5.637a.879.879 0 00-.879-.879z" fill="url(#paint3_linear)"/><path d="M57.956 42.278l-3.56-1.78a.06.06 0 01-.033-.054v-1.788a6.49 6.49 0 002.755-4.464 7.432 7.432 0 00-1.976-9.68c.106-.352.161-.716.161-1.088 0-2.297-2.08-4.166-4.636-4.166-2.557 0-4.637 1.869-4.637 4.166 0 .372.054.736.16 1.089a7.493 7.493 0 00-2.439 3.179 276.46 276.46 0 01-.662-7.62c-.287-3.89-1.686-7.175-4.046-9.5C36.702 8.265 33.575 7.045 30 7.045c-3.575 0-6.702 1.22-9.043 3.527-2.36 2.325-3.759 5.61-4.046 9.5a311.966 311.966 0 01-.23 2.943H8.393a5.582 5.582 0 00-5.576 5.576v.052c0 .716.17 1.433.49 2.074l.45.9v1.435a6.856 6.856 0 002.818 5.542v1.27c0 .163-.11.307-.266.352L2.68 41.253A3.713 3.713 0 000 44.807v7.269a.879.879 0 001.758 0v-7.269c0-.86.578-1.628 1.406-1.864l3.629-1.037c.13-.037.255-.088.373-.148l2.228 2.227v8.09a.879.879 0 001.758 0v-8.09l2.243-2.243c.3.147.598.233.817.295l.891.255a4.638 4.638 0 00-1.951 3.777v6.006a.879.879 0 001.757 0V46.07a2.88 2.88 0 011.716-2.633l5.025-2.22A9.322 9.322 0 0030 46.38a9.301 9.301 0 008.352-5.162l5.023 2.219a2.88 2.88 0 011.716 2.633v6.006a.879.879 0 001.758 0V46.07a4.636 4.636 0 00-1.11-3.007l1.36-.68 1.02.97a3.686 3.686 0 002.548 1.018c.916 0 1.832-.339 2.547-1.017l1.02-.97 2.936 1.467c.661.33 1.072.995 1.072 1.735v6.49a.879.879 0 001.758 0v-6.49c0-1.41-.783-2.677-2.044-3.307zm-7.29-21.263c1.588 0 2.88 1.08 2.88 2.41 0 .055-.005.11-.01.165a7.414 7.414 0 00-2.87-.575 7.413 7.413 0 00-2.869.575c-.004-.055-.01-.11-.01-.166 0-1.328 1.292-2.409 2.88-2.409zM10.273 42.378L8.27 40.376c.042-.165.064-.337.064-.512v-.371a6.16 6.16 0 001.941.31c.667 0 1.318-.1 1.937-.293v.353c0 .19.02.364.054.522l-1.993 1.993zm-.147-4.335c-2.542-.076-4.61-2.315-4.61-4.991v-1.643a.878.878 0 00-.094-.393l-.542-1.085a2.895 2.895 0 01-.304-1.288v-.052a3.822 3.822 0 013.818-3.818h7.576v3.648c0 .59-.14 1.18-.403 1.708l-.444.887a.88.88 0 00-.093.393v1.879a4.72 4.72 0 01-1.444 3.414 4.724 4.724 0 01-3.46 1.34zm7.345 3.097l-2.776-.793c-.726-.207-.725-.288-.725-.483v-1.211a6.597 6.597 0 001.337-1.23c.141.287.357.537.637.718.705.456 2.034 1.214 3.99 1.912L17.47 41.14zM30 44.62a7.568 7.568 0 01-6.741-4.114l1.28-.565a2.76 2.76 0 001.643-2.523V35.31c1.18.475 2.47.736 3.818.736 1.349 0 2.637-.261 3.818-.736v2.11a2.76 2.76 0 001.644 2.522l1.279.565A7.55 7.55 0 0130 44.62zm7.621-5.647l-1.45-.64a1 1 0 01-.595-.915v-3.021a10.273 10.273 0 004.697-8.624v-1.648a3.666 3.666 0 00-1.25-2.772c-1.766-1.536-5.763-4.216-12.693-4.91a.88.88 0 00-.175 1.75c6.446.644 10.106 3.087 11.715 4.486.41.357.645.884.645 1.446v1.648c0 4.695-3.82 8.515-8.515 8.515s-8.515-3.82-8.515-8.515v-.736c0-.337.187-.647.501-.827 1.099-.633 2.548-1.805 3.212-3.796a.879.879 0 00-1.668-.556c-.489 1.467-1.587 2.348-2.421 2.828a2.732 2.732 0 00-1.382 2.352v.735c0 3.61 1.873 6.791 4.697 8.624v3.021a1 1 0 01-.596.915l-1.45.64c-2.83-.757-4.644-1.767-5.479-2.307-.016-.011-.026-.023-.02-.051.306-1.813 1.093-7.04 1.785-16.414.256-3.459 1.475-6.356 3.527-8.377 2.005-1.976 4.706-3.02 7.809-3.02 3.103 0 5.803 1.044 7.81 3.02 2.05 2.021 3.27 4.918 3.526 8.377.692 9.374 1.48 14.601 1.786 16.414.005.027-.005.04-.022.05-.836.542-2.65 1.55-5.479 2.308zm9.348 1.471a.06.06 0 01-.033.054l-2.754 1.377-.097-.047-4.018-1.775c1.954-.697 3.283-1.455 3.989-1.912.606-.392.92-1.106.8-1.82-.008-.038-.015-.081-.022-.123a6.5 6.5 0 002.135 2.458v1.788zm5.033 1.634a1.938 1.938 0 01-2.671 0l-.817-.776c.137-.258.213-.551.213-.858v-.935a6.535 6.535 0 003.879 0v.935c0 .307.075.6.213.858l-.817.776zm-1.336-4.033a4.746 4.746 0 01-4.727-4.239.879.879 0 00-.125-.365 5.678 5.678 0 01-.844-2.972 5.703 5.703 0 015.697-5.696 5.703 5.703 0 015.696 5.697 5.64 5.64 0 01-.289 1.778c-2.495-2.536-6.886-3.53-7.097-3.576a.88.88 0 00-1.068.858c0 .006-.04.616-.682 1.257a.879.879 0 001.243 1.243c.494-.494.785-.996.955-1.42 1.479.44 4.548 1.55 5.926 3.497a4.745 4.745 0 01-4.684 3.938z" fill="url(#paint4_linear)"/><path d="M55.364 46.722a.879.879 0 00-.88.878v4.476a.879.879 0 001.758 0V47.6a.879.879 0 00-.878-.878z" fill="url(#paint5_linear)"/><defs><linearGradient id="paint0_linear" x1="19.582" y1="47.21" x2="22.096" y2="47.441" gradientUnits="userSpaceOnUse"><stop stop-color="#4BBEFF"/><stop offset="1" stop-color="#0068EA"/></linearGradient><linearGradient id="paint1_linear" x1="38.37" y1="47.21" x2="40.884" y2="47.441" gradientUnits="userSpaceOnUse"><stop stop-color="#4BBEFF"/><stop offset="1" stop-color="#0068EA"/></linearGradient><linearGradient id="paint2_linear" x1="5.966" y1="27.6" x2="12.529" y2="32.788" gradientUnits="userSpaceOnUse"><stop stop-color="#4BBEFF"/><stop offset="1" stop-color="#0068EA"/></linearGradient><linearGradient id="paint3_linear" x1="3.613" y1="45.253" x2="6.136" y2="45.426" gradientUnits="userSpaceOnUse"><stop stop-color="#4BBEFF"/><stop offset="1" stop-color="#0068EA"/></linearGradient><linearGradient id="paint4_linear" x1="-4.946" y1="5.137" x2="70.823" y2="33.69" gradientUnits="userSpaceOnUse"><stop stop-color="#4BBEFF"/><stop offset="1" stop-color="#0068EA"/></linearGradient><linearGradient id="paint5_linear" x1="54.34" y1="46.462" x2="56.858" y2="46.667" gradientUnits="userSpaceOnUse"><stop stop-color="#4BBEFF"/><stop offset="1" stop-color="#0068EA"/></linearGradient></defs></svg>