<svg width="62" height="62" fill="none" xmlns="http://www.w3.org/2000/svg"><path d="M1.034 48.567c.57 0 1.033-.463 1.033-1.034v-2.067a1.033 1.033 0 00-2.067 0v2.067c0 .571.463 1.034 1.034 1.034z" fill="url(#paint0_linear)"/><path d="M5.167 48.567v-4.134a1.033 1.033 0 10-2.067 0v4.134a1.033 1.033 0 102.067 0z" fill="url(#paint1_linear)"/><path d="M17.567 48.567v-4.134a1.033 1.033 0 10-2.067 0v4.134a1.033 1.033 0 102.067 0z" fill="url(#paint2_linear)"/><path d="M9.3 50.633v-8.266a1.033 1.033 0 10-2.067 0v8.266a1.033 1.033 0 102.067 0z" fill="url(#paint3_linear)"/><path d="M13.433 50.633v-8.266a1.033 1.033 0 10-2.066 0v8.266a1.033 1.033 0 102.066 0z" fill="url(#paint4_linear)"/><path d="M21.7 52.7V40.3a1.033 1.033 0 10-2.067 0v12.4a1.033 1.033 0 102.067 0z" fill="url(#paint5_linear)"/><path d="M25.833 54.767V38.233a1.033 1.033 0 10-2.066 0v16.534a1.033 1.033 0 102.066 0z" fill="url(#paint6_linear)"/><path d="M29.966 60.966V32.034a1.033 1.033 0 10-2.066 0v28.932a1.033 1.033 0 102.066 0z" fill="url(#paint7_linear)"/><path d="M60.966 44.433c-.57 0-1.033.463-1.033 1.033v2.067a1.033 1.033 0 002.067 0v-2.067c0-.57-.463-1.033-1.034-1.033z" fill="url(#paint8_linear)"/><path d="M58.9 48.567v-4.134a1.033 1.033 0 10-2.067 0v4.134a1.033 1.033 0 102.067 0z" fill="url(#paint9_linear)"/><path d="M46.5 48.567v-4.134a1.033 1.033 0 10-2.067 0v4.134a1.033 1.033 0 102.067 0z" fill="url(#paint10_linear)"/><path d="M54.767 50.633v-8.266a1.033 1.033 0 10-2.067 0v8.266a1.033 1.033 0 102.066 0z" fill="url(#paint11_linear)"/><path d="M50.633 50.633v-8.266a1.033 1.033 0 10-2.066 0v8.266a1.033 1.033 0 102.066 0z" fill="url(#paint12_linear)"/><path d="M42.367 52.7V40.3a1.033 1.033 0 10-2.067 0v12.4a1.033 1.033 0 102.067 0z" fill="url(#paint13_linear)"/><path d="M38.233 54.767V38.233a1.033 1.033 0 10-2.066 0v16.534a1.033 1.033 0 102.066 0z" fill="url(#paint14_linear)"/><path d="M34.1 60.966V32.034a1.033 1.033 0 10-2.066 0v28.932a1.033 1.033 0 102.066 0z" fill="url(#paint15_linear)"/><path d="M55.8 0H35.133a6.207 6.207 0 00-6.2 6.2v14.467a6.207 6.207 0 006.2 6.2h1.8l-.758 6.071a1.033 1.033 0 001.633.964l9.673-7.035h8.32a6.207 6.207 0 006.199-6.2V6.2A6.207 6.207 0 0055.8 0zm4.133 20.667A4.137 4.137 0 0155.8 24.8h-6.218a1.005 1.005 0 00-.18-.607 1.03 1.03 0 00-1.443-.229l-9.438 6.864.737-5.9a1.033 1.033 0 10-2.05-.256l-.016.128h-2.059A4.137 4.137 0 0131 20.667V6.2a4.137 4.137 0 014.133-4.133H55.8A4.137 4.137 0 0159.933 6.2v14.467z" fill="url(#paint16_linear)"/><path d="M37.2 10.333a3.1 3.1 0 100 6.2 3.1 3.1 0 000-6.2zm0 4.133a1.033 1.033 0 110-2.066 1.033 1.033 0 010 2.066z" fill="url(#paint17_linear)"/><path d="M45.466 10.333a3.1 3.1 0 100 6.2 3.1 3.1 0 000-6.2zm0 4.133a1.033 1.033 0 110-2.066 1.033 1.033 0 010 2.066z" fill="url(#paint18_linear)"/><path d="M53.733 10.333a3.1 3.1 0 100 6.2 3.1 3.1 0 000-6.2zm0 4.133a1.033 1.033 0 110-2.066 1.033 1.033 0 010 2.066z" fill="url(#paint19_linear)"/><defs><linearGradient id="paint0_linear" x1="-.17" y1="44.261" x2="2.749" y2="44.682" gradientUnits="userSpaceOnUse"><stop stop-color="#4BBEFF"/><stop offset="1" stop-color="#0068EA"/></linearGradient><linearGradient id="paint1_linear" x1="2.93" y1="43.142" x2="5.883" y2="43.426" gradientUnits="userSpaceOnUse"><stop stop-color="#4BBEFF"/><stop offset="1" stop-color="#0068EA"/></linearGradient><linearGradient id="paint2_linear" x1="15.33" y1="43.142" x2="18.283" y2="43.426" gradientUnits="userSpaceOnUse"><stop stop-color="#4BBEFF"/><stop offset="1" stop-color="#0068EA"/></linearGradient><linearGradient id="paint3_linear" x1="7.063" y1="40.904" x2="10.034" y2="41.075" gradientUnits="userSpaceOnUse"><stop stop-color="#4BBEFF"/><stop offset="1" stop-color="#0068EA"/></linearGradient><linearGradient id="paint4_linear" x1="11.196" y1="40.904" x2="14.167" y2="41.075" gradientUnits="userSpaceOnUse"><stop stop-color="#4BBEFF"/><stop offset="1" stop-color="#0068EA"/></linearGradient><linearGradient id="paint5_linear" x1="19.463" y1="38.665" x2="22.438" y2="38.788" gradientUnits="userSpaceOnUse"><stop stop-color="#4BBEFF"/><stop offset="1" stop-color="#0068EA"/></linearGradient><linearGradient id="paint6_linear" x1="23.596" y1="36.427" x2="26.573" y2="36.522" gradientUnits="userSpaceOnUse"><stop stop-color="#4BBEFF"/><stop offset="1" stop-color="#0068EA"/></linearGradient><linearGradient id="paint7_linear" x1="27.729" y1="29.711" x2="30.709" y2="29.768" gradientUnits="userSpaceOnUse"><stop stop-color="#4BBEFF"/><stop offset="1" stop-color="#0068EA"/></linearGradient><linearGradient id="paint8_linear" x1="59.763" y1="44.261" x2="62.683" y2="44.682" gradientUnits="userSpaceOnUse"><stop stop-color="#4BBEFF"/><stop offset="1" stop-color="#0068EA"/></linearGradient><linearGradient id="paint9_linear" x1="56.663" y1="43.142" x2="59.616" y2="43.426" gradientUnits="userSpaceOnUse"><stop stop-color="#4BBEFF"/><stop offset="1" stop-color="#0068EA"/></linearGradient><linearGradient id="paint10_linear" x1="44.263" y1="43.142" x2="47.216" y2="43.426" gradientUnits="userSpaceOnUse"><stop stop-color="#4BBEFF"/><stop offset="1" stop-color="#0068EA"/></linearGradient><linearGradient id="paint11_linear" x1="52.529" y1="40.904" x2="55.5" y2="41.075" gradientUnits="userSpaceOnUse"><stop stop-color="#4BBEFF"/><stop offset="1" stop-color="#0068EA"/></linearGradient><linearGradient id="paint12_linear" x1="48.396" y1="40.904" x2="51.367" y2="41.075" gradientUnits="userSpaceOnUse"><stop stop-color="#4BBEFF"/><stop offset="1" stop-color="#0068EA"/></linearGradient><linearGradient id="paint13_linear" x1="40.13" y1="38.665" x2="43.105" y2="38.788" gradientUnits="userSpaceOnUse"><stop stop-color="#4BBEFF"/><stop offset="1" stop-color="#0068EA"/></linearGradient><linearGradient id="paint14_linear" x1="35.996" y1="36.427" x2="38.974" y2="36.522" gradientUnits="userSpaceOnUse"><stop stop-color="#4BBEFF"/><stop offset="1" stop-color="#0068EA"/></linearGradient><linearGradient id="paint15_linear" x1="31.863" y1="29.711" x2="34.843" y2="29.768" gradientUnits="userSpaceOnUse"><stop stop-color="#4BBEFF"/><stop offset="1" stop-color="#0068EA"/></linearGradient><linearGradient id="paint16_linear" x1="26.207" y1="-1.418" x2="70.437" y2="10.949" gradientUnits="userSpaceOnUse"><stop stop-color="#4BBEFF"/><stop offset="1" stop-color="#0068EA"/></linearGradient><linearGradient id="paint17_linear" x1="33.589" y1="10.075" x2="41.844" y2="12.456" gradientUnits="userSpaceOnUse"><stop stop-color="#4BBEFF"/><stop offset="1" stop-color="#0068EA"/></linearGradient><linearGradient id="paint18_linear" x1="41.856" y1="10.075" x2="50.111" y2="12.456" gradientUnits="userSpaceOnUse"><stop stop-color="#4BBEFF"/><stop offset="1" stop-color="#0068EA"/></linearGradient><linearGradient id="paint19_linear" x1="50.122" y1="10.075" x2="58.377" y2="12.456" gradientUnits="userSpaceOnUse"><stop stop-color="#4BBEFF"/><stop offset="1" stop-color="#0068EA"/></linearGradient></defs></svg>