<svg width="60" height="60" fill="none" xmlns="http://www.w3.org/2000/svg"><g clip-path="url(#clip0)"><g clip-path="url(#clip1)"><path d="M55.364 0H5.034C2.253.003.003 2.24 0 5v38c.003 2.76 2.255 4.997 5.033 5h16.979l-.755 6h-2.131a3.01 3.01 0 00-3.02 3c0 1.657 1.352 3 3.02 3h22.146a3.01 3.01 0 003.02-3c0-1.657-1.353-3-3.02-3H39.14l-.755-6h16.98c2.778-.003 5.029-2.24 5.032-5V5c-.003-2.76-2.254-4.997-5.033-5zM5.034 2h50.33a3.01 3.01 0 013.02 3v3H2.014V5c0-1.657 1.351-3 3.02-3zm53.35 8v28H2.014V10h56.37zM42.278 57c0 .552-.45 1-1.006 1H19.126a1.003 1.003 0 01-1.007-1c0-.552.45-1 1.007-1h22.146c.555 0 1.006.448 1.006 1zm-5.167-3H23.286l.755-6h12.315l.755 6zm18.253-8H5.034a3.01 3.01 0 01-3.02-3v-3h56.37v3c0 1.657-1.352 3-3.02 3z" fill="url(#paint0_linear)"/><path d="M52.344 42h2.014v2h-2.014v-2z" fill="url(#paint1_linear)"/><path d="M6.04 4h2.013v2H6.04V4z" fill="url(#paint2_linear)"/><path d="M10.066 4h2.013v2h-2.013V4z" fill="url(#paint3_linear)"/><path d="M14.093 4h2.013v2h-2.013V4z" fill="url(#paint4_linear)"/><path d="M39.7 23.173a1.738 1.738 0 010 2.13c-1.532 2.002-5.209 6.12-9.501 6.12-4.293 0-7.97-4.118-9.503-6.12a1.736 1.736 0 010-2.13c1.533-2 5.21-6.12 9.503-6.12s7.97 4.12 9.502 6.12v0z" stroke="url(#paint5_linear)" stroke-width="2" stroke-linecap="round" stroke-linejoin="round"/><path d="M30.199 27.318a3.08 3.08 0 100-6.159 3.08 3.08 0 000 6.159z" stroke="url(#paint6_linear)" stroke-width="2" stroke-linecap="round" stroke-linejoin="round"/></g></g><defs><linearGradient id="paint0_linear" x1="-4.979" y1="-2.494" x2="75.355" y2="20.823" gradientUnits="userSpaceOnUse"><stop stop-color="#4BBEFF"/><stop offset="1" stop-color="#0068EA"/></linearGradient><linearGradient id="paint1_linear" x1="52.178" y1="41.917" x2="54.856" y2="42.694" gradientUnits="userSpaceOnUse"><stop stop-color="#4BBEFF"/><stop offset="1" stop-color="#0068EA"/></linearGradient><linearGradient id="paint2_linear" x1="5.874" y1="3.917" x2="8.552" y2="4.694" gradientUnits="userSpaceOnUse"><stop stop-color="#4BBEFF"/><stop offset="1" stop-color="#0068EA"/></linearGradient><linearGradient id="paint3_linear" x1="9.9" y1="3.917" x2="12.578" y2="4.694" gradientUnits="userSpaceOnUse"><stop stop-color="#4BBEFF"/><stop offset="1" stop-color="#0068EA"/></linearGradient><linearGradient id="paint4_linear" x1="13.927" y1="3.917" x2="16.605" y2="4.694" gradientUnits="userSpaceOnUse"><stop stop-color="#4BBEFF"/><stop offset="1" stop-color="#0068EA"/></linearGradient><linearGradient id="paint5_linear" x1="18.704" y1="16.456" x2="43.307" y2="26.197" gradientUnits="userSpaceOnUse"><stop stop-color="#4BBEFF"/><stop offset="1" stop-color="#0068EA"/></linearGradient><linearGradient id="paint6_linear" x1="26.611" y1="20.903" x2="34.812" y2="23.267" gradientUnits="userSpaceOnUse"><stop stop-color="#4BBEFF"/><stop offset="1" stop-color="#0068EA"/></linearGradient><clipPath id="clip0"><path fill="#fff" d="M0 0h60v60H0z"/></clipPath><clipPath id="clip1"><path fill="#fff" d="M0 0h60.397v60H0z"/></clipPath></defs></svg>