<svg width="61" height="61" fill="none" xmlns="http://www.w3.org/2000/svg"><path d="M20.333 22.367H6.1c-.561 0-1.017.455-1.017 1.016v8.134c0 .561.456 1.016 1.017 1.016h14.233c.562 0 1.017-.455 1.017-1.016v-8.134c0-.561-.455-1.016-1.017-1.016zM19.317 30.5h-12.2v-6.1h12.2v6.1z" fill="url(#paint0_linear)"/><path d="M29.483 22.367H27.45V24.4h2.033v-2.033z" fill="url(#paint1_linear)"/><path d="M39.65 22.367h-8.133V24.4h8.133v-2.033z" fill="url(#paint2_linear)"/><path d="M39.65 26.433H23.383v2.034H39.65v-2.034z" fill="url(#paint3_linear)"/><path d="M35.583 30.5h-12.2v2.033h12.2V30.5z" fill="url(#paint4_linear)"/><path d="M39.65 34.567H5.083V36.6H39.65v-2.033z" fill="url(#paint5_linear)"/><path d="M35.583 38.633h-30.5v2.034h30.5v-2.034z" fill="url(#paint6_linear)"/><path d="M56.933 0h-36.6a4.067 4.067 0 00-4.066 4.067v13.216h-12.2A4.067 4.067 0 000 21.35v26.433a4.067 4.067 0 004.067 4.067h11.976l-.61 3.05h-2.216a3.05 3.05 0 100 6.1h18.3a3.05 3.05 0 100-6.1H29.3l-.61-3.05h11.977a4.067 4.067 0 004.066-4.067V34.567h12.2A4.067 4.067 0 0061 30.5V4.067A4.067 4.067 0 0056.933 0zM31.517 56.933a1.017 1.017 0 010 2.034h-18.3a1.017 1.017 0 010-2.034h18.3zM17.507 54.9l.61-3.05h8.5l.61 3.05h-9.72zM42.7 47.783c0 1.123-.91 2.034-2.033 2.034h-36.6a2.033 2.033 0 01-2.034-2.034V45.75H42.7v2.033zm0-4.066H2.033V21.35c0-1.123.91-2.033 2.034-2.033h36.6c1.123 0 2.033.91 2.033 2.033v22.367zM58.967 30.5c0 1.123-.91 2.033-2.034 2.033h-12.2v-4.066h14.234V30.5zm0-4.067H44.733V21.35a4.067 4.067 0 00-4.066-4.067H18.3V4.067c0-1.123.91-2.034 2.033-2.034h36.6c1.123 0 2.034.91 2.034 2.034v22.366z" fill="url(#paint7_linear)"/><path d="M36.6 5.083H22.367c-.562 0-1.017.456-1.017 1.017v8.133c0 .562.455 1.017 1.017 1.017H36.6c.561 0 1.017-.455 1.017-1.017V6.1c0-.561-.456-1.017-1.017-1.017zm-1.017 8.134h-12.2v-6.1h12.2v6.1z" fill="url(#paint8_linear)"/><path d="M45.75 5.083h-2.033v2.034h2.033V5.083z" fill="url(#paint9_linear)"/><path d="M55.917 5.083h-8.134v2.034h8.134V5.083z" fill="url(#paint10_linear)"/><path d="M55.917 9.15H39.65v2.033h16.267V9.15z" fill="url(#paint11_linear)"/><path d="M51.85 13.217h-12.2v2.033h12.2v-2.033z" fill="url(#paint12_linear)"/><path d="M55.917 17.283h-8.134v2.034h8.134v-2.034z" fill="url(#paint13_linear)"/><path d="M51.85 21.35h-4.067v2.033h4.067V21.35z" fill="url(#paint14_linear)"/><path d="M56.933 36.6H54.9v2.033h2.033V36.6z" fill="url(#paint15_linear)"/><path d="M56.933 40.667H54.9V42.7h2.033v-2.033z" fill="url(#paint16_linear)"/><path d="M56.933 44.733H54.9v2.034h2.033v-2.034z" fill="url(#paint17_linear)"/><path d="M52.867 44.733h-2.034v2.034h2.034v-2.034z" fill="url(#paint18_linear)"/><path d="M48.8 44.733h-2.033v2.034H48.8v-2.034z" fill="url(#paint19_linear)"/><path d="M6.1 13.217H4.067v2.033H6.1v-2.033z" fill="url(#paint20_linear)"/><path d="M6.1 9.15H4.067v2.033H6.1V9.15z" fill="url(#paint21_linear)"/><path d="M6.1 5.083H4.067v2.034H6.1V5.083z" fill="url(#paint22_linear)"/><path d="M10.167 5.083H8.133v2.034h2.034V5.083z" fill="url(#paint23_linear)"/><path d="M14.233 5.083H12.2v2.034h2.033V5.083z" fill="url(#paint24_linear)"/><defs><linearGradient id="paint0_linear" x1="3.742" y1="21.944" x2="23.084" y2="30.867" gradientUnits="userSpaceOnUse"><stop stop-color="#4BBEFF"/><stop offset="1" stop-color="#0068EA"/></linearGradient><linearGradient id="paint1_linear" x1="27.282" y1="22.282" x2="29.99" y2="23.063" gradientUnits="userSpaceOnUse"><stop stop-color="#4BBEFF"/><stop offset="1" stop-color="#0068EA"/></linearGradient><linearGradient id="paint2_linear" x1="30.846" y1="22.282" x2="35.88" y2="28.088" gradientUnits="userSpaceOnUse"><stop stop-color="#4BBEFF"/><stop offset="1" stop-color="#0068EA"/></linearGradient><linearGradient id="paint3_linear" x1="22.042" y1="26.349" x2="25.753" y2="34.91" gradientUnits="userSpaceOnUse"><stop stop-color="#4BBEFF"/><stop offset="1" stop-color="#0068EA"/></linearGradient><linearGradient id="paint4_linear" x1="22.378" y1="30.416" x2="26.784" y2="38.038" gradientUnits="userSpaceOnUse"><stop stop-color="#4BBEFF"/><stop offset="1" stop-color="#0068EA"/></linearGradient><linearGradient id="paint5_linear" x1="2.234" y1="34.482" x2="4.226" y2="44.246" gradientUnits="userSpaceOnUse"><stop stop-color="#4BBEFF"/><stop offset="1" stop-color="#0068EA"/></linearGradient><linearGradient id="paint6_linear" x1="2.569" y1="38.549" x2="4.801" y2="48.203" gradientUnits="userSpaceOnUse"><stop stop-color="#4BBEFF"/><stop offset="1" stop-color="#0068EA"/></linearGradient><linearGradient id="paint7_linear" x1="-5.029" y1="-2.536" x2="76.19" y2="20.883" gradientUnits="userSpaceOnUse"><stop stop-color="#4BBEFF"/><stop offset="1" stop-color="#0068EA"/></linearGradient><linearGradient id="paint8_linear" x1="20.009" y1="4.661" x2="39.351" y2="13.584" gradientUnits="userSpaceOnUse"><stop stop-color="#4BBEFF"/><stop offset="1" stop-color="#0068EA"/></linearGradient><linearGradient id="paint9_linear" x1="43.549" y1="4.999" x2="46.256" y2="5.779" gradientUnits="userSpaceOnUse"><stop stop-color="#4BBEFF"/><stop offset="1" stop-color="#0068EA"/></linearGradient><linearGradient id="paint10_linear" x1="47.113" y1="4.999" x2="52.146" y2="10.804" gradientUnits="userSpaceOnUse"><stop stop-color="#4BBEFF"/><stop offset="1" stop-color="#0068EA"/></linearGradient><linearGradient id="paint11_linear" x1="38.309" y1="9.065" x2="42.02" y2="17.626" gradientUnits="userSpaceOnUse"><stop stop-color="#4BBEFF"/><stop offset="1" stop-color="#0068EA"/></linearGradient><linearGradient id="paint12_linear" x1="38.644" y1="13.132" x2="43.05" y2="20.755" gradientUnits="userSpaceOnUse"><stop stop-color="#4BBEFF"/><stop offset="1" stop-color="#0068EA"/></linearGradient><linearGradient id="paint13_linear" x1="47.113" y1="17.199" x2="52.146" y2="23.004" gradientUnits="userSpaceOnUse"><stop stop-color="#4BBEFF"/><stop offset="1" stop-color="#0068EA"/></linearGradient><linearGradient id="paint14_linear" x1="47.448" y1="21.265" x2="51.849" y2="23.803" gradientUnits="userSpaceOnUse"><stop stop-color="#4BBEFF"/><stop offset="1" stop-color="#0068EA"/></linearGradient><linearGradient id="paint15_linear" x1="54.732" y1="36.516" x2="57.44" y2="37.296" gradientUnits="userSpaceOnUse"><stop stop-color="#4BBEFF"/><stop offset="1" stop-color="#0068EA"/></linearGradient><linearGradient id="paint16_linear" x1="54.732" y1="40.582" x2="57.44" y2="41.363" gradientUnits="userSpaceOnUse"><stop stop-color="#4BBEFF"/><stop offset="1" stop-color="#0068EA"/></linearGradient><linearGradient id="paint17_linear" x1="54.732" y1="44.649" x2="57.44" y2="45.429" gradientUnits="userSpaceOnUse"><stop stop-color="#4BBEFF"/><stop offset="1" stop-color="#0068EA"/></linearGradient><linearGradient id="paint18_linear" x1="50.666" y1="44.649" x2="53.373" y2="45.429" gradientUnits="userSpaceOnUse"><stop stop-color="#4BBEFF"/><stop offset="1" stop-color="#0068EA"/></linearGradient><linearGradient id="paint19_linear" x1="46.599" y1="44.649" x2="49.306" y2="45.429" gradientUnits="userSpaceOnUse"><stop stop-color="#4BBEFF"/><stop offset="1" stop-color="#0068EA"/></linearGradient><linearGradient id="paint20_linear" x1="3.899" y1="13.132" x2="6.606" y2="13.913" gradientUnits="userSpaceOnUse"><stop stop-color="#4BBEFF"/><stop offset="1" stop-color="#0068EA"/></linearGradient><linearGradient id="paint21_linear" x1="3.899" y1="9.065" x2="6.606" y2="9.846" gradientUnits="userSpaceOnUse"><stop stop-color="#4BBEFF"/><stop offset="1" stop-color="#0068EA"/></linearGradient><linearGradient id="paint22_linear" x1="3.899" y1="4.999" x2="6.606" y2="5.779" gradientUnits="userSpaceOnUse"><stop stop-color="#4BBEFF"/><stop offset="1" stop-color="#0068EA"/></linearGradient><linearGradient id="paint23_linear" x1="7.966" y1="4.999" x2="10.673" y2="5.779" gradientUnits="userSpaceOnUse"><stop stop-color="#4BBEFF"/><stop offset="1" stop-color="#0068EA"/></linearGradient><linearGradient id="paint24_linear" x1="12.032" y1="4.999" x2="14.74" y2="5.779" gradientUnits="userSpaceOnUse"><stop stop-color="#4BBEFF"/><stop offset="1" stop-color="#0068EA"/></linearGradient></defs></svg>