<svg width="61" height="61" fill="none" xmlns="http://www.w3.org/2000/svg"><path d="M10.15 32.122v3.438c0 .44.357.798.798.798h39.104c.44 0 .798-.357.798-.798v-3.438a.798.798 0 00-.798-.797H10.948a.798.798 0 00-.798.797zm1.596.798h37.508v1.842H11.746V32.92z" fill="url(#paint0_linear)"/><path d="M21.584 23.666a3.042 3.042 0 003.038-3.039 3.042 3.042 0 00-3.038-3.038 3.042 3.042 0 00-3.039 3.038 3.042 3.042 0 003.038 3.039zm0-4.482a1.444 1.444 0 010 2.886 1.445 1.445 0 01-1.444-1.443c0-.795.648-1.443 1.444-1.443z" fill="url(#paint1_linear)"/><path d="M13.556 18.731a.798.798 0 00-.612.776v2.24c0 .37.253.691.612.777l2.093.498.045.109-1.127 1.832a.798.798 0 00.115.982l1.584 1.584a.798.798 0 00.982.115l1.833-1.127.108.045.498 2.092c.086.36.407.613.776.613h2.241c.37 0 .69-.253.776-.613l.498-2.092.109-.045 1.832 1.127c.314.194.72.146.982-.115l1.584-1.584a.798.798 0 00.116-.982l-1.128-1.832a6.73 6.73 0 00.045-.109l2.093-.498a.798.798 0 00.613-.776v-2.24a.8.8 0 00-.613-.777l-2.093-.498a6.053 6.053 0 00-.045-.109l1.128-1.832a.797.797 0 00-.116-.982l-1.584-1.584a.798.798 0 00-.982-.115l-1.832 1.127a4.682 4.682 0 00-.109-.045L23.48 12.6a.798.798 0 00-.776-.612h-2.24a.798.798 0 00-.777.612l-.498 2.093-.108.045-1.833-1.127a.798.798 0 00-.982.115l-1.584 1.584a.797.797 0 00-.115.982l1.127 1.832-.045.109-2.092.498zm3.722-1.076l-1.023-1.662.694-.694 1.662 1.023a.798.798 0 00.782.03c.232-.119.473-.22.717-.297a.798.798 0 00.531-.575l.452-1.897h.98l.452 1.897a.8.8 0 00.532.575c.244.078.485.178.717.297a.798.798 0 00.782-.03l1.662-1.023.693.694-1.022 1.662a.797.797 0 00-.03.782c.119.232.219.473.297.717a.798.798 0 00.575.531l1.897.452v.98l-1.898.453a.798.798 0 00-.574.531 4.768 4.768 0 01-.298.717.797.797 0 00.03.782l1.023 1.662-.693.693-1.662-1.022a.797.797 0 00-.782-.03 4.81 4.81 0 01-.717.297.798.798 0 00-.532.575l-.451 1.897h-.981l-.452-1.897a.797.797 0 00-.531-.575 4.8 4.8 0 01-.717-.297.797.797 0 00-.782.03l-1.662 1.022-.694-.693 1.023-1.662a.798.798 0 00.03-.783 4.773 4.773 0 01-.297-.716.798.798 0 00-.575-.531l-1.897-.452v-.981l1.897-.452a.797.797 0 00.574-.531c.079-.244.179-.485.298-.717a.797.797 0 00-.03-.782z" fill="url(#paint2_linear)"/><path d="M33.252 21.942h2.523v.118c0 .945.769 1.714 1.714 1.714h1.832c.945 0 1.714-.769 1.714-1.714v-.118h7.446a.798.798 0 100-1.596h-7.446v-.118c0-.945-.77-1.713-1.714-1.713H37.49c-.945 0-1.714.768-1.714 1.713v.118h-2.523a.798.798 0 100 1.596zm4.118-1.714a.12.12 0 01.119-.118h1.832a.12.12 0 01.119.118v1.832a.119.119 0 01-.119.119H37.49a.119.119 0 01-.118-.119v-1.832z" fill="url(#paint3_linear)"/><path d="M33.252 27.435h8.592v.119c0 .945.769 1.713 1.714 1.713h1.832c.945 0 1.713-.768 1.713-1.713v-.119h1.379a.798.798 0 000-1.595h-1.379v-.118c0-.945-.768-1.714-1.713-1.714h-1.832c-.945 0-1.714.769-1.714 1.714v.118h-8.592a.798.798 0 100 1.595zm10.187-1.713c0-.066.053-.119.119-.119h1.832c.065 0 .118.053.118.119v1.832a.119.119 0 01-.118.118h-1.832a.119.119 0 01-.119-.118v-1.832z" fill="url(#paint4_linear)"/><path d="M43.1 11.988h-1.832c-.945 0-1.714.768-1.714 1.713v.119h-6.302a.798.798 0 100 1.595h6.302v.118c0 .945.769 1.714 1.714 1.714H43.1c.945 0 1.713-.769 1.713-1.714v-.118h3.668a.798.798 0 100-1.595h-3.668v-.12c0-.945-.768-1.713-1.713-1.713zm.118 3.545a.119.119 0 01-.118.119h-1.833a.119.119 0 01-.118-.119v-1.832c0-.065.053-.118.118-.118H43.1c.065 0 .118.053.118.118v1.832z" fill="url(#paint5_linear)"/><g clip-path="url(#clip0)"><g clip-path="url(#clip1)"><path d="M56.287 0H5.117C2.292.003.003 2.277 0 5.083v38.634c.003 2.806 2.292 5.08 5.117 5.083h17.262l-.768 6.1h-2.166a3.06 3.06 0 00-3.07 3.05 3.06 3.06 0 003.07 3.05h22.514a3.06 3.06 0 003.07-3.05 3.06 3.06 0 00-3.07-3.05h-2.166l-.768-6.1h17.262c2.825-.003 5.114-2.277 5.117-5.083V5.083C61.4 2.277 59.112.003 56.287 0zM5.117 2.033h51.17a3.06 3.06 0 013.07 3.05v3.05H2.047v-3.05a3.06 3.06 0 013.07-3.05zm54.24 8.134v28.466H2.047V10.167h57.31zM42.983 57.95a1.02 1.02 0 01-1.024 1.017H19.445a1.02 1.02 0 01-1.024-1.017 1.02 1.02 0 011.024-1.017h22.514a1.02 1.02 0 011.024 1.017zM37.73 54.9H23.674l.768-6.1h12.52l.768 6.1zm18.557-8.133H5.117a3.06 3.06 0 01-3.07-3.05v-3.05h57.31v3.05a3.06 3.06 0 01-3.07 3.05z" fill="url(#paint6_linear)"/><path d="M53.217 42.7h2.047v2.033h-2.047V42.7z" fill="url(#paint7_linear)"/><path d="M6.14 4.067h2.047V6.1H6.14V4.067z" fill="url(#paint8_linear)"/><path d="M10.234 4.067h2.047V6.1h-2.047V4.067z" fill="url(#paint9_linear)"/><path d="M14.328 4.067h2.046V6.1h-2.046V4.067z" fill="url(#paint10_linear)"/></g></g><defs><linearGradient id="paint0_linear" x1="6.795" y1="31.116" x2="15.914" y2="52.377" gradientUnits="userSpaceOnUse"><stop stop-color="#4BBEFF"/><stop offset="1" stop-color="#0068EA"/></linearGradient><linearGradient id="paint1_linear" x1="18.044" y1="17.337" x2="26.135" y2="19.669" gradientUnits="userSpaceOnUse"><stop stop-color="#4BBEFF"/><stop offset="1" stop-color="#0068EA"/></linearGradient><linearGradient id="paint2_linear" x1="11.519" y1="11.269" x2="34.526" y2="17.903" gradientUnits="userSpaceOnUse"><stop stop-color="#4BBEFF"/><stop offset="1" stop-color="#0068EA"/></linearGradient><linearGradient id="paint3_linear" x1="31.068" y1="18.296" x2="44.177" y2="30.388" gradientUnits="userSpaceOnUse"><stop stop-color="#4BBEFF"/><stop offset="1" stop-color="#0068EA"/></linearGradient><linearGradient id="paint4_linear" x1="31.068" y1="23.789" x2="44.177" y2="35.882" gradientUnits="userSpaceOnUse"><stop stop-color="#4BBEFF"/><stop offset="1" stop-color="#0068EA"/></linearGradient><linearGradient id="paint5_linear" x1="31.068" y1="11.769" x2="44.177" y2="23.861" gradientUnits="userSpaceOnUse"><stop stop-color="#4BBEFF"/><stop offset="1" stop-color="#0068EA"/></linearGradient><linearGradient id="paint6_linear" x1="-5.062" y1="-2.536" x2="76.611" y2="21.17" gradientUnits="userSpaceOnUse"><stop stop-color="#4BBEFF"/><stop offset="1" stop-color="#0068EA"/></linearGradient><linearGradient id="paint7_linear" x1="53.048" y1="42.615" x2="55.77" y2="43.406" gradientUnits="userSpaceOnUse"><stop stop-color="#4BBEFF"/><stop offset="1" stop-color="#0068EA"/></linearGradient><linearGradient id="paint8_linear" x1="5.972" y1="3.982" x2="8.694" y2="4.772" gradientUnits="userSpaceOnUse"><stop stop-color="#4BBEFF"/><stop offset="1" stop-color="#0068EA"/></linearGradient><linearGradient id="paint9_linear" x1="10.065" y1="3.982" x2="12.788" y2="4.772" gradientUnits="userSpaceOnUse"><stop stop-color="#4BBEFF"/><stop offset="1" stop-color="#0068EA"/></linearGradient><linearGradient id="paint10_linear" x1="14.159" y1="3.982" x2="16.881" y2="4.772" gradientUnits="userSpaceOnUse"><stop stop-color="#4BBEFF"/><stop offset="1" stop-color="#0068EA"/></linearGradient><clipPath id="clip0"><path fill="#fff" d="M0 0h61v61H0z"/></clipPath><clipPath id="clip1"><path fill="#fff" d="M0 0h61.404v61H0z"/></clipPath></defs></svg>