<svg width="60" height="60" fill="none" xmlns="http://www.w3.org/2000/svg"><g clip-path="url(#clip0)"><path d="M51.25 50h-30A6.257 6.257 0 0115 43.75V6.25A6.257 6.257 0 0121.25 0h22.52c2.305 0 4.557.935 6.188 2.563l4.98 4.98a8.703 8.703 0 012.562 6.19V43.75A6.257 6.257 0 0151.25 50zm-30-47.5a3.755 3.755 0 00-3.75 3.75v37.5a3.755 3.755 0 003.75 3.75h30A3.755 3.755 0 0055 43.75V13.733c0-1.668-.65-3.238-1.83-4.42l-4.98-4.98A6.289 6.289 0 0043.77 2.5H21.25z" fill="url(#paint0_linear)"/><path d="M38.75 60h-30a6.257 6.257 0 01-6.25-6.25v-40A6.257 6.257 0 018.75 7.5h2.5a1.25 1.25 0 010 2.5h-2.5A3.755 3.755 0 005 13.75v40a3.755 3.755 0 003.75 3.75h30a3.755 3.755 0 003.75-3.75 1.25 1.25 0 012.5 0A6.257 6.257 0 0138.75 60z" fill="url(#paint1_linear)"/><path d="M46.25 20h-20a1.25 1.25 0 010-2.5h20a1.25 1.25 0 010 2.5z" fill="url(#paint2_linear)"/><path d="M46.25 30h-20a1.25 1.25 0 010-2.5h20a1.25 1.25 0 010 2.5z" fill="url(#paint3_linear)"/><path d="M46.25 40h-20a1.25 1.25 0 010-2.5h20a1.25 1.25 0 010 2.5z" fill="url(#paint4_linear)"/></g><defs><linearGradient id="paint0_linear" x1="11.496" y1="-2.079" x2="69.315" y2="12.092" gradientUnits="userSpaceOnUse"><stop stop-color="#4BBEFF"/><stop offset="1" stop-color="#0068EA"/></linearGradient><linearGradient id="paint1_linear" x1="-1.004" y1="5.317" x2="57.121" y2="18.885" gradientUnits="userSpaceOnUse"><stop stop-color="#4BBEFF"/><stop offset="1" stop-color="#0068EA"/></linearGradient><linearGradient id="paint2_linear" x1="23.145" y1="17.396" x2="27.34" y2="28.283" gradientUnits="userSpaceOnUse"><stop stop-color="#4BBEFF"/><stop offset="1" stop-color="#0068EA"/></linearGradient><linearGradient id="paint3_linear" x1="23.145" y1="27.396" x2="27.34" y2="38.283" gradientUnits="userSpaceOnUse"><stop stop-color="#4BBEFF"/><stop offset="1" stop-color="#0068EA"/></linearGradient><linearGradient id="paint4_linear" x1="23.145" y1="37.396" x2="27.34" y2="48.283" gradientUnits="userSpaceOnUse"><stop stop-color="#4BBEFF"/><stop offset="1" stop-color="#0068EA"/></linearGradient><clipPath id="clip0"><path fill="#fff" d="M0 0h60v60H0z"/></clipPath></defs></svg>