<svg width="53" height="59" fill="none" xmlns="http://www.w3.org/2000/svg"><path fill-rule="evenodd" clip-rule="evenodd" d="M39.056.294c-.705.687-.278 1.38 2.32 3.767 4.35 3.998 7.186 8.661 8.514 14.002.669 2.69.928 3.142 1.812 3.15.535.004 1.298-.678 1.298-1.162 0-.83-1.362-5.455-2.112-7.172-1.876-4.292-4.909-8.376-8.342-11.229C40.568.006 39.7-.332 39.056.294zM18.021 3.788c-5.488.968-10.364 3.87-13.604 8.097-1.673 2.182-2.557 3.83-3.558 6.634l-.73 2.042-.097 9.666c-.08 8.025-.025 10.01.327 11.7 2.717 13.06 17.12 20.548 29.761 15.471 5.49-2.205 10.304-7.117 12.226-12.474 1.167-3.255 1.277-4.628 1.167-14.677-.114-10.524-.163-10.872-2.07-14.669-3.21-6.388-8.915-10.58-16.047-11.792-2.794-.475-4.672-.474-7.375.002zm19.03.67c-.943.535-.58 1.622.982 2.935 3.01 2.532 5.334 6.183 6.87 10.797.828 2.489 1.05 2.907 1.584 2.981 1.542.213 1.771-1.156.725-4.333-1.353-4.106-3.635-7.636-6.988-10.802-2.001-1.89-2.333-2.055-3.173-1.579zM20.43 18.331v12.323H2.394V27.7c0-7.848 1.486-11.914 5.927-16.224 1.954-1.897 2.753-2.465 4.868-3.46 2.187-1.03 5.202-1.913 6.77-1.984.441-.02.47.732.47 12.301zm4.607-12.06a30.94 30.94 0 012.821.68c1.224.37 1.358.483 1.247 1.049-.244 1.244 1.12 1.881 2.127.993.447-.394.575-.357 1.838.547.747.534 1.358 1.026 1.358 1.095 0 .068-.127.048-.281-.045-.43-.26-1.604.609-1.604 1.187 0 .281.303.705.673.941.625.4.723.398 1.371-.016.51-.325.66-.6.555-1.013-.1-.39.274-.128 1.2.843 1.338 1.402 1.342 1.412.725 1.71-.707.343-.953 1.313-.474 1.875.396.465 1.378.494 1.83.053.416-.405.72-.006 1.148 1.506.163.577.467 1.462.676 1.966.21.505.491 1.797.627 2.871.237 1.88.222 1.975-.408 2.544-.823.742-.82 1.003.018 1.82.567.552.673.9.673 2.216v1.561h-1.534c-1.194 0-1.463-.07-1.212-.315.756-.735.187-2.044-.888-2.044-1.074 0-1.643 1.31-.888 2.044.251.245-.359.315-2.746.315s-2.996-.07-2.745-.315c.415-.404.415-1.325 0-1.73-.756-.735-2.1-.181-2.1.865 0 .303.145.692.323.865.251.245-.359.315-2.746.315-2.386 0-2.996-.07-2.745-.315.498-.485.382-1.48-.216-1.843-.47-.286-.538-.612-.538-2.561 0-1.95.068-2.276.538-2.561.304-.185.539-.612.539-.979s-.235-.794-.539-.978c-.47-.286-.538-.612-.538-2.561 0-1.95.068-2.276.538-2.561.304-.185.539-.612.539-.979s-.235-.794-.539-.978c-.47-.286-.538-.612-.538-2.561 0-1.95.068-2.276.538-2.561.304-.185.539-.612.539-.979s-.235-.794-.539-.978c-.53-.323-.757-1.25-.305-1.25.127 0 .884.118 1.682.263zm.837 4.603c-.33.224-.599.63-.599.903 0 .455.918 1.31 1.406 1.31.303 0 1.286-1.002 1.286-1.31 0-.31-.983-1.311-1.286-1.311-.115 0-.478.183-.807.408zm3.493 3.577c-.178.173-.323.562-.323.865 0 .303.145.692.323.865.755.736 2.1.182 2.1-.865 0-.703-.49-1.18-1.212-1.18-.31 0-.71.142-.888.315zm-3.704 3.636c-.46.495-.47.604-.1 1.245.55.96 1.442 1.046 2.014.195.42-.623.42-.718.011-1.327-.536-.797-1.25-.839-1.925-.113zm7.302-.037c-.594.639-.344 1.519.543 1.912.527.234.75.199 1.188-.188.671-.592.688-1.23.047-1.795-.648-.571-1.202-.549-1.778.071zm-3.598 3.48c-.178.173-.323.562-.323.865 0 .303.145.692.323.866.178.172.577.314.888.314.311 0 .71-.142.889-.314.177-.174.323-.563.323-.866 0-.303-.146-.692-.323-.865-.178-.173-.578-.315-.889-.315-.31 0-.71.142-.888.315zm7.268 0c-.178.173-.323.562-.323.865 0 .303.145.692.323.866.178.172.577.314.888.314.311 0 .71-.142.889-.314.177-.174.322-.563.322-.866 0-.303-.145-.692-.322-.865-.178-.173-.578-.315-.889-.315-.31 0-.71.142-.888.315zm-10.821 3.618c-.296.289-.538.683-.538.877 0 .42.852 1.22 1.3 1.22.384 0 1.391-.948 1.391-1.31 0-.144-.242-.498-.538-.787-.296-.288-.66-.524-.808-.524-.148 0-.511.236-.807.524zm7.312-.105c-.793.541-.67 1.409.274 1.923.659.36.77.35 1.279-.097.722-.637.706-1.326-.042-1.837-.739-.504-.757-.504-1.51.01zm7.95 11.838c-.116 2.744-.328 4.437-.732 5.83-2.39 8.238-9.818 13.73-18.568 13.73-8.821 0-16.402-5.67-18.594-13.91-.355-1.331-.601-3.348-.707-5.781l-.162-3.736h38.926l-.163 3.867z" fill="url(#paint0_linear)"/><defs><linearGradient id="paint0_linear" x1="-4.369" y1="-2.453" x2="67.259" y2="16.1" gradientUnits="userSpaceOnUse"><stop stop-color="#4BBEFF"/><stop offset="1" stop-color="#0068EA"/></linearGradient></defs></svg>