<svg width="80" height="80" fill="none" xmlns="http://www.w3.org/2000/svg"><g clip-path="url(#clip0)"><path d="M71.659 8.48h-6.67a1.172 1.172 0 100 2.345h6.67c3.307 0 5.997 2.697 5.997 6.012v44.757c0 3.315-2.69 6.012-5.997 6.012H8.34c-3.307 0-5.997-2.697-5.997-6.012v-8.296a1.172 1.172 0 10-2.344 0v8.296C0 66.2 3.742 69.95 8.34 69.95h23.791l-2.36 7.706h-5.197a1.172 1.172 0 100 2.344h30.85a1.172 1.172 0 100-2.344h-5.198l-2.36-7.706H71.66c4.599 0 8.34-3.748 8.34-8.356V16.837c0-4.607-3.741-8.356-8.34-8.356zM32.224 77.657l2.36-7.706h10.833l2.36 7.706H32.223z" fill="url(#paint0_linear)"/><path d="M1.172 49.019c.647 0 1.172-.525 1.172-1.172v-31.01c0-3.315 2.69-6.012 5.997-6.012h3.403a1.172 1.172 0 100-2.344H8.34C3.741 8.48 0 12.229 0 16.837v31.01c0 .647.525 1.172 1.172 1.172z" fill="url(#paint1_linear)"/><path d="M75.324 16.643a3.712 3.712 0 00-3.705-3.71h-4.17a1.172 1.172 0 100 2.343h4.17c.75 0 1.362.613 1.362 1.367V39.62a1.172 1.172 0 102.343 0V16.643z" fill="url(#paint2_linear)"/><path d="M75.324 56.946V45.14a1.172 1.172 0 10-2.343 0v11.807c0 .754-.611 1.367-1.362 1.367H8.38a1.366 1.366 0 01-1.362-1.367V16.643c0-.754.611-1.367 1.362-1.367h2.207a1.172 1.172 0 100-2.344H8.38a3.712 3.712 0 00-3.705 3.71v40.304a3.712 3.712 0 003.705 3.711h63.238a3.712 3.712 0 003.705-3.71z" fill="url(#paint3_linear)"/><path d="M10.008 62.965a1.172 1.172 0 100 2.343h4.788a1.172 1.172 0 100-2.343h-4.787z" fill="url(#paint4_linear)"/><path d="M19.384 62.965a1.172 1.172 0 100 2.343h4.787a1.172 1.172 0 100-2.343h-4.787z" fill="url(#paint5_linear)"/><path d="M40.067 53.725c4.76 0 9.439-1.26 13.528-3.643a27.032 27.032 0 009.637-9.575 1.172 1.172 0 00-2.018-1.193 24.678 24.678 0 01-5.416 6.369 32.508 32.508 0 00-2.996-1.17c2.5-4.59 3.934-10.354 4.097-16.478h7.683a24.401 24.401 0 01-1.27 6.715 1.172 1.172 0 102.22.754 26.797 26.797 0 001.421-8.641C66.953 12.05 54.893 0 40.067 0A26.62 26.62 0 0027.89 2.907a27.136 27.136 0 00-8.696 7.024 3.91 3.91 0 00-5.08 3.726c0 1.088.447 2.072 1.167 2.781a26.622 26.622 0 00-2.1 10.425c0 14.812 12.062 26.862 26.886 26.862zm-24.514-25.69h7.683c.162 6.124 1.597 11.887 4.097 16.477a32.53 32.53 0 00-2.985 1.166c-5.109-4.267-8.46-10.568-8.795-17.643zm10.972 19.267c.668-.265 1.353-.51 2.054-.732a20.653 20.653 0 002.565 3.134 24.505 24.505 0 01-4.62-2.402zm12.37 4c-2.896-.4-5.64-2.27-7.92-5.396a38.836 38.836 0 017.92-1.016v6.41zm0-8.757c-3.229.085-6.348.518-9.26 1.282-2.468-4.317-3.889-9.86-4.055-15.792h13.316v3.213a3.912 3.912 0 00-2.736 3.725 3.912 3.912 0 002.736 3.726v3.846zm2.344 8.756V44.89c2.753.075 5.416.42 7.92 1.016-2.28 3.127-5.024 4.997-7.92 5.395zm12.382-3.995a24.454 24.454 0 01-4.637 2.405 20.626 20.626 0 002.571-3.141c.705.224 1.394.47 2.066.736zm1.324-27.194c-.862 0-1.564-.7-1.564-1.562a1.564 1.564 0 013.128 0c0 .861-.702 1.562-1.564 1.562zm9.636 5.579H56.9a42.99 42.99 0 00-.25-3.627 3.91 3.91 0 002.204-3.514 3.91 3.91 0 00-3.76-3.902 31.117 31.117 0 00-2.29-5.435 32.557 32.557 0 002.984-1.165c5.108 4.266 8.46 10.567 8.794 17.643zM53.61 6.424a31.29 31.29 0 01-2.054.731A21.085 21.085 0 0049.42 4.47a18.387 18.387 0 00-.443-.453 24.49 24.49 0 014.633 2.408zM41.24 2.426c2.911.41 5.668 2.335 7.913 5.395a38.863 38.863 0 01-7.914 1.015v-6.41zm0 8.754c3.227-.084 6.346-.518 9.258-1.28.908 1.586 1.696 3.387 2.332 5.368a3.905 3.905 0 00-1.792 3.282 3.912 3.912 0 003.29 3.857c.12 1.081.195 2.18.226 3.284H41.24V11.18zm0 16.855h13.314c-.165 5.933-1.587 11.475-4.053 15.792-2.913-.763-6.033-1.197-9.262-1.282V38.7a3.912 3.912 0 002.736-3.726 3.913 3.913 0 00-2.736-3.725v-3.213zm-1.173 5.377c.863 0 1.564.7 1.564 1.561a1.564 1.564 0 01-3.127 0c0-.86.701-1.561 1.563-1.561zM38.895 2.424v6.412a38.847 38.847 0 01-7.931-1.02c2.24-3.065 4.995-4.985 7.931-5.392zm-9.943 2.572a24.76 24.76 0 012.238-1.002 20.56 20.56 0 00-2.608 3.162 31.176 31.176 0 01-2.067-.736 24.296 24.296 0 012.437-1.424zm-10.93 7.1c.862 0 1.564.7 1.564 1.561a1.564 1.564 0 01-3.128 0c0-.86.702-1.561 1.564-1.561zm-.648 5.413a3.91 3.91 0 004.556-3.851 3.89 3.89 0 00-.81-2.379 24.777 24.777 0 013.22-3.235c.962.433 1.962.823 2.993 1.17-1.142 2.097-2.09 4.5-2.791 7.153a1.172 1.172 0 002.266.599c.703-2.662 1.663-5.042 2.816-7.07 2.916.765 6.039 1.2 9.271 1.284v14.511H25.58c.035-1.217.123-2.429.263-3.615a1.172 1.172 0 00-2.327-.275 42.86 42.86 0 00-.28 3.89h-7.684a24.227 24.227 0 011.822-8.182z" fill="url(#paint6_linear)"/><path d="M17.05 46.67h-5.022a1.172 1.172 0 100 2.343h5.022a1.172 1.172 0 100-2.343z" fill="url(#paint7_linear)"/><path d="M10.856 53.31c0 .648.525 1.172 1.172 1.172h8.142a1.172 1.172 0 100-2.343h-8.142c-.647 0-1.172.524-1.172 1.171z" fill="url(#paint8_linear)"/></g><defs><linearGradient id="paint0_linear" x1="-6.595" y1="5.507" x2="97.905" y2="39.212" gradientUnits="userSpaceOnUse"><stop stop-color="#4BBEFF"/><stop offset="1" stop-color="#0068EA"/></linearGradient><linearGradient id="paint1_linear" x1="-1.065" y1="6.796" x2="17.406" y2="8.492" gradientUnits="userSpaceOnUse"><stop stop-color="#4BBEFF"/><stop offset="1" stop-color="#0068EA"/></linearGradient><linearGradient id="paint2_linear" x1="65.53" y1="11.774" x2="78.466" y2="12.985" gradientUnits="userSpaceOnUse"><stop stop-color="#4BBEFF"/><stop offset="1" stop-color="#0068EA"/></linearGradient><linearGradient id="paint3_linear" x1="-1.149" y1="10.948" x2="85.035" y2="47.735" gradientUnits="userSpaceOnUse"><stop stop-color="#4BBEFF"/><stop offset="1" stop-color="#0068EA"/></linearGradient><linearGradient id="paint4_linear" x1="8.249" y1="62.867" x2="14.06" y2="67.966" gradientUnits="userSpaceOnUse"><stop stop-color="#4BBEFF"/><stop offset="1" stop-color="#0068EA"/></linearGradient><linearGradient id="paint5_linear" x1="17.624" y1="62.867" x2="23.435" y2="67.966" gradientUnits="userSpaceOnUse"><stop stop-color="#4BBEFF"/><stop offset="1" stop-color="#0068EA"/></linearGradient><linearGradient id="paint6_linear" x1="8.749" y1="-2.234" x2="80.333" y2="18.425" gradientUnits="userSpaceOnUse"><stop stop-color="#4BBEFF"/><stop offset="1" stop-color="#0068EA"/></linearGradient><linearGradient id="paint7_linear" x1="10.249" y1="46.572" x2="16.082" y2="51.858" gradientUnits="userSpaceOnUse"><stop stop-color="#4BBEFF"/><stop offset="1" stop-color="#0068EA"/></linearGradient><linearGradient id="paint8_linear" x1="9.992" y1="52.041" x2="15.668" y2="59.364" gradientUnits="userSpaceOnUse"><stop stop-color="#4BBEFF"/><stop offset="1" stop-color="#0068EA"/></linearGradient><clipPath id="clip0"><path fill="#fff" d="M0 0h80v80H0z"/></clipPath></defs></svg>