<svg width="80" height="80" fill="none" xmlns="http://www.w3.org/2000/svg"><path d="M76.25 70H75V25a1.25 1.25 0 00-1.25-1.25H54.117A37.99 37.99 0 0056.06 15h6.44a1.25 1.25 0 00.884-2.134l-10-10a1.25 1.25 0 00-1.768 0l-10 10A1.25 1.25 0 0042.5 15h3.946a27 27 0 01-6.196 8.75h-34A1.25 1.25 0 005 25v45H3.75a1.25 1.25 0 00-1.25 1.25v2.5a3.75 3.75 0 003.75 3.75h67.5a3.75 3.75 0 003.75-3.75v-2.5A1.25 1.25 0 0076.25 70zM49.47 14.176a1.25 1.25 0 00-1.175-1.676h-2.778L52.5 5.517l6.983 6.983h-4.575a1.25 1.25 0 00-1.25 1.167 35.963 35.963 0 01-31.033 33.139l-3.875.515V33.614a29.884 29.884 0 0030.72-19.438zM7.5 26.25h29.661a27.191 27.191 0 01-19.206 4.757l-.285-.04a1.25 1.25 0 00-1.42 1.24V48.75a1.25 1.25 0 001.415 1.239l5.285-.704A38.473 38.473 0 0053.144 26.25H72.5V70H70V30a1.25 1.25 0 00-1.25-1.25H55v2.5h12.5V70h-55V31.25H15v-2.5h-3.75A1.25 1.25 0 0010 30v40H7.5V26.25zM75 73.75A1.25 1.25 0 0173.75 75H6.25A1.25 1.25 0 015 73.75V72.5h70v1.25z" fill="url(#paint0_linear)"/><path d="M15 68.75h50v-2.5h-5V37.5a1.25 1.25 0 00-1.25-1.25h-7.5A1.25 1.25 0 0050 37.5v28.75h-5V47.5a1.25 1.25 0 00-1.25-1.25h-7.5A1.25 1.25 0 0035 47.5v18.75h-5v-12.5a1.25 1.25 0 00-1.25-1.25h-7.5A1.25 1.25 0 0020 53.75v12.5h-5v2.5zm37.5-30h5v27.5h-5v-27.5zm-15 10h5v17.5h-5v-17.5zM22.5 55h5v11.25h-5V55z" fill="url(#paint1_linear)"/><path d="M33.75 2.5h2.5V5h-2.5V2.5z" fill="url(#paint2_linear)"/><path d="M36.25 5h2.5v2.5h-2.5V5z" fill="url(#paint3_linear)"/><path d="M33.75 7.5h2.5V10h-2.5V7.5z" fill="url(#paint4_linear)"/><path d="M31.25 5h2.5v2.5h-2.5V5z" fill="url(#paint5_linear)"/><path d="M28.75 12.5h2.5V15h-2.5v-2.5z" fill="url(#paint6_linear)"/><path d="M75 15h2.5v2.5H75V15z" fill="url(#paint7_linear)"/><path d="M72.5 17.5H75V20h-2.5v-2.5z" fill="url(#paint8_linear)"/><path d="M70 15h2.5v2.5H70V15z" fill="url(#paint9_linear)"/><path d="M72.5 12.5H75V15h-2.5v-2.5z" fill="url(#paint10_linear)"/><path d="M67.5 7.5H70V10h-2.5V7.5z" fill="url(#paint11_linear)"/><path d="M22.5 40H20v3.75A1.25 1.25 0 0021.25 45a23.037 23.037 0 0011.944-3.96l-1.388-2.08a21.35 21.35 0 01-9.306 3.477V40z" fill="url(#paint12_linear)"/><path d="M20 35h2.5v2.5H20V35z" fill="url(#paint13_linear)"/><defs><linearGradient id="paint0_linear" x1="-3.683" y1="-.618" x2="96.176" y2="28.176" gradientUnits="userSpaceOnUse"><stop stop-color="#4BBEFF"/><stop offset="1" stop-color="#0068EA"/></linearGradient><linearGradient id="paint1_linear" x1="10.878" y1="34.899" x2="71.129" y2="61.626" gradientUnits="userSpaceOnUse"><stop stop-color="#4BBEFF"/><stop offset="1" stop-color="#0068EA"/></linearGradient><linearGradient id="paint2_linear" x1="33.544" y1="2.396" x2="36.873" y2="3.356" gradientUnits="userSpaceOnUse"><stop stop-color="#4BBEFF"/><stop offset="1" stop-color="#0068EA"/></linearGradient><linearGradient id="paint3_linear" x1="36.044" y1="4.896" x2="39.373" y2="5.856" gradientUnits="userSpaceOnUse"><stop stop-color="#4BBEFF"/><stop offset="1" stop-color="#0068EA"/></linearGradient><linearGradient id="paint4_linear" x1="33.544" y1="7.396" x2="36.873" y2="8.356" gradientUnits="userSpaceOnUse"><stop stop-color="#4BBEFF"/><stop offset="1" stop-color="#0068EA"/></linearGradient><linearGradient id="paint5_linear" x1="31.044" y1="4.896" x2="34.373" y2="5.856" gradientUnits="userSpaceOnUse"><stop stop-color="#4BBEFF"/><stop offset="1" stop-color="#0068EA"/></linearGradient><linearGradient id="paint6_linear" x1="28.544" y1="12.396" x2="31.872" y2="13.356" gradientUnits="userSpaceOnUse"><stop stop-color="#4BBEFF"/><stop offset="1" stop-color="#0068EA"/></linearGradient><linearGradient id="paint7_linear" x1="74.794" y1="14.896" x2="78.123" y2="15.856" gradientUnits="userSpaceOnUse"><stop stop-color="#4BBEFF"/><stop offset="1" stop-color="#0068EA"/></linearGradient><linearGradient id="paint8_linear" x1="72.294" y1="17.396" x2="75.623" y2="18.356" gradientUnits="userSpaceOnUse"><stop stop-color="#4BBEFF"/><stop offset="1" stop-color="#0068EA"/></linearGradient><linearGradient id="paint9_linear" x1="69.794" y1="14.896" x2="73.123" y2="15.856" gradientUnits="userSpaceOnUse"><stop stop-color="#4BBEFF"/><stop offset="1" stop-color="#0068EA"/></linearGradient><linearGradient id="paint10_linear" x1="72.294" y1="12.396" x2="75.623" y2="13.356" gradientUnits="userSpaceOnUse"><stop stop-color="#4BBEFF"/><stop offset="1" stop-color="#0068EA"/></linearGradient><linearGradient id="paint11_linear" x1="67.294" y1="7.396" x2="70.623" y2="8.356" gradientUnits="userSpaceOnUse"><stop stop-color="#4BBEFF"/><stop offset="1" stop-color="#0068EA"/></linearGradient><linearGradient id="paint12_linear" x1="18.912" y1="38.709" x2="32.535" y2="47.289" gradientUnits="userSpaceOnUse"><stop stop-color="#4BBEFF"/><stop offset="1" stop-color="#0068EA"/></linearGradient><linearGradient id="paint13_linear" x1="19.794" y1="34.896" x2="23.122" y2="35.856" gradientUnits="userSpaceOnUse"><stop stop-color="#4BBEFF"/><stop offset="1" stop-color="#0068EA"/></linearGradient></defs></svg>