<svg width="60" height="60" fill="none" xmlns="http://www.w3.org/2000/svg"><path d="M0 0v50h33.744c.167.6.253 1.22.256 1.842V52h-2v8h22v-8h-2.014l.006-.8c.005-.414.094-.823.264-1.2H60V0H0zm52 58H34v-4h18v4zm-16-6v-.158a9.025 9.025 0 00-1.04-4.2l-1.044-1.979-3.438-9.4a1.011 1.011 0 00-.073-.156 1 1 0 011.122-1.464.986.986 0 01.606.465l2.135 3.7a2 2 0 003.732-1V24a1 1 0 012 0v9a1 1 0 00.917 1l8.332.694A3.017 3.017 0 0152 37.68v8.108a2.99 2.99 0 01-.5 1.664l-.665 1a4.988 4.988 0 00-.839 2.738l-.01.809H36zm22-4h-4.522A4.99 4.99 0 0054 45.79v-8.11a5.03 5.03 0 00-4.585-4.98L42 32.08V24a3 3 0 00-6 0v13.808l-2.134-3.7a3 3 0 00-5.24 2.916l3.435 9.387a1 1 0 00.055.123L32.888 48H2V10h56v38zM2 8V2h56v6H2z" fill="#fff"/><path d="M4 4h2v2H4V4zm4 0h2v2H8V4zm4 0h2v2h-2V4zm6 14.124l2.69-2.3-1.3-1.52L18 15.491V14H6v12h12v-7.876zM8 24v-8h8v1.2l-3.992 3.42-2.316-2.29-1.4 1.423 3.624 3.581L16 19.837V24H8zm10 10.124l2.69-2.3-1.3-1.52L18 31.491V30H6v12h12v-7.876zM8 40v-8h8v1.2l-3.992 3.42-2.316-2.29-1.4 1.423 3.624 3.581L16 35.837V40H8zm22-26h4v2h-4v-2zm6 0h18v2H36v-2zm-6 4h24v2H30v-2zm0 5h4v2h-4v-2zm14 0h10v2H44v-2zm0 4h10v2H44v-2zm-14 0h4v2h-4v-2z" fill="#fff"/></svg>