<svg width="80" height="80" fill="none" xmlns="http://www.w3.org/2000/svg"><g clip-path="url(#clip0)"><path d="M13.002 15.374c.505.459 1.18.294 1.657-.075a1.172 1.172 0 10-1.657.075z" fill="url(#paint0_linear)"/><path d="M9.212 20.728c.528.327 1.287.151 1.615-.375a1.173 1.173 0 10-1.615.375z" fill="url(#paint1_linear)"/><path d="M18.644 11.268c.895 0 1.485-1.147.935-1.879a1.173 1.173 0 10-.935 1.88z" fill="url(#paint2_linear)"/><path d="M6.475 26.69c.563.216 1.295-.098 1.518-.668a1.174 1.174 0 00-.67-1.518 1.17 1.17 0 00-1.515.668 1.172 1.172 0 00.667 1.518z" fill="url(#paint3_linear)"/><path d="M4.886 33.055c.58.112 1.26-.36 1.368-.938a1.17 1.17 0 00-.936-1.366 1.172 1.172 0 10-.431 2.304z" fill="url(#paint4_linear)"/><path d="M6.456 50.175a1.172 1.172 0 00.424 2.267c.744 0 1.37-.88 1.094-1.596a1.172 1.172 0 00-1.518-.67z" fill="url(#paint5_linear)"/><path d="M5.305 46.114a1.173 1.173 0 10-1.366-.94c.115.64.745 1.061 1.366.94z" fill="url(#paint6_linear)"/><path d="M4.499 39.604c1.552-.054 1.552-2.292 0-2.345a1.172 1.172 0 00-.002 2.345H4.5z" fill="url(#paint7_linear)"/><path d="M70.618 56.477a1.173 1.173 0 00-1.256 1.98c.588.333 1.128.212 1.618-.36a1.174 1.174 0 00-.362-1.62z" fill="url(#paint8_linear)"/><path d="M69.768 19.07a1.172 1.172 0 00-.394 1.61c.32.529 1.083.714 1.612.393a1.174 1.174 0 00-1.218-2.004z" fill="url(#paint9_linear)"/><path d="M65.694 13.93a1.172 1.172 0 00-.092 1.655c.539.488 1.09.519 1.655.092a1.174 1.174 0 00-1.563-1.748z" fill="url(#paint10_linear)"/><path d="M73.414 50.544a1.173 1.173 0 00-1.525.652c-.287.718.339 1.608 1.089 1.608a1.173 1.173 0 00.436-2.26z" fill="url(#paint11_linear)"/><path d="M75.513 37.651a1.172 1.172 0 00-1.185 1.162c-.006.7.572 1.089 1.173 1.183a1.172 1.172 0 00.012-2.345z" fill="url(#paint12_linear)"/><path d="M73.243 27.14a1.175 1.175 0 001.098-1.585c-.597-1.436-2.692-.646-2.195.825.177.47.624.76 1.097.76z" fill="url(#paint13_linear)"/><path d="M73.814 32.492c.102.579.776 1.058 1.357.952a1.17 1.17 0 00.952-1.357 1.17 1.17 0 00-1.357-.952 1.17 1.17 0 00-.952 1.357z" fill="url(#paint14_linear)"/><path d="M66.78 61.797a1.172 1.172 0 10-1.599 1.715c.56.437 1.113.418 1.657-.058a1.172 1.172 0 00-.059-1.657z" fill="url(#paint15_linear)"/><path d="M75.061 44.194a1.173 1.173 0 00-1.377.923c-.128.663.486 1.4 1.152 1.4a1.173 1.173 0 00.225-2.324z" fill="url(#paint16_linear)"/><path d="M42.796 72.676v-.002a1.174 1.174 0 00-1.076 1.264c.046.568.678 1.132 1.264 1.075a1.173 1.173 0 00-.188-2.337z" fill="url(#paint17_linear)"/><path d="M54.971 69.36a1.171 1.171 0 00-.542 1.567c.267.549 1.019.813 1.566.542a1.172 1.172 0 10-1.024-2.109z" fill="url(#paint18_linear)"/><path d="M49.038 71.585c-.625.17-.994.814-.824 1.44.157.577.867.98 1.44.824 1.485-.46.896-2.618-.616-2.264z" fill="url(#paint19_linear)"/><path d="M62.392 9.41h-.001a1.173 1.173 0 10-1.432 1.856c.577.386 1.125.316 1.644-.212.396-.513.3-1.25-.21-1.645z" fill="url(#paint20_linear)"/><path d="M60.393 66.077c-.52.385-.63 1.12-.246 1.64.514.537 1.06.62 1.64.246a1.173 1.173 0 00-1.394-1.886z" fill="url(#paint21_linear)"/><path d="M36.453 72.607v-.001a1.175 1.175 0 00-1.286 1.047c-.064.624.539 1.293 1.168 1.293a1.173 1.173 0 00.119-2.339z" fill="url(#paint22_linear)"/><path d="M61.321 38.682a4.58 4.58 0 00-1.53-3.418c2.009-1.804 2.011-5.049 0-6.851 2.008-1.804 2.012-5.047 0-6.85 2.863-2.566 1.358-7.5-2.48-7.987V4.7c0-2.592-2.108-4.7-4.7-4.7H37.755c-1.516 0-1.516 2.345 0 2.345H52.61A2.358 2.358 0 0154.966 4.7v.62h-28.95V4.7a2.358 2.358 0 012.356-2.355h2.975c1.516 0 1.516-2.345 0-2.345h-2.976a4.705 4.705 0 00-4.7 4.7v17.164c-3.192-2.034-7.505.371-7.505 4.147v27.494L13.97 55.71c-2.385-1.114-5.333-.581-7.187 1.281-2.475 2.487-2.475 6.533 0 9.02l7.257 7.29c1.07 1.074 2.732-.58 1.662-1.655l-7.257-7.29a4.055 4.055 0 010-5.71c1.542-1.55 4.149-1.541 5.682 0l12.104 12.159a4.056 4.056 0 010 5.71c-1.792 1.8-4.578 1.388-6.141-.461-1.07-1.075-2.732.58-1.662 1.654 5.587 5.907 14.448-.68 10.24-7.614l2.112-2.122c6.345.484 12.506-3.02 15.353-8.716h6.478c2.592 0 4.7-2.108 4.7-4.7V43.251a4.602 4.602 0 004.01-4.569zm-2.345.016a2.248 2.248 0 01-2.245 2.245h-2.047c-2.982-.124-2.981-4.382 0-4.506h2.047a2.251 2.251 0 012.245 2.26zm0-6.851a2.248 2.248 0 01-2.245 2.245h-2.047c-2.982-.124-2.981-4.382 0-4.506h2.047a2.251 2.251 0 012.245 2.26zm0-6.851a2.248 2.248 0 01-2.245 2.245h-2.047c-2.982-.124-2.981-4.382 0-4.506h2.047a2.251 2.251 0 012.245 2.26zm0-6.867c-.04 1.2-1.005 2.261-2.245 2.261h-2.047c-2.981-.124-2.981-4.382 0-4.506h2.047a2.248 2.248 0 012.245 2.245zm-4.01-10.464v5.874c-4.364-.214-6.55 5.133-3.343 8.024-2.028 1.76-2.027 5.09 0 6.85-2.028 1.761-2.027 5.091 0 6.851-3.208 2.893-1.018 8.238 3.343 8.024v5.873H32.734c-.743-4-3.048-7.756-6.718-9.67V7.664h28.95zM32.012 65.682l-1.642-.077a1.184 1.184 0 00-.885.344l-2.39 2.4L15.897 57.1l2.272-2.283c.219-.22.342-.517.342-.827V26.011c0-3.303 5.091-3.303 5.091 0v14.186c0 .467.278.89.707 1.076 2.794 1.209 4.86 3.712 5.82 7.048 1.082 3.764.505 7.919-1.506 10.843-.835 1.213 1.036 2.633 1.932 1.33.271-.396.521-.809.749-1.237h12.15a13.363 13.363 0 01-11.442 6.425zm20.6-8.77h-20.33c.54-1.707.784-3.552.713-5.405h21.971v3.05a2.358 2.358 0 01-2.355 2.354z" fill="url(#paint23_linear)"/><path d="M29.366 16.55c.556.451 1.109.444 1.658-.021l3.432-3.523c1.058-1.086-.622-2.723-1.68-1.637l-3.431 3.523a1.173 1.173 0 00.021 1.658z" fill="url(#paint24_linear)"/><path d="M29.366 24.089c.556.45 1.109.443 1.658-.022L41.8 13.006c1.058-1.086-.622-2.723-1.68-1.637L29.346 22.431a1.173 1.173 0 00.021 1.658z" fill="url(#paint25_linear)"/></g><defs><linearGradient id="paint0_linear" x1="12.427" y1="13.239" x2="15.544" y2="14.149" gradientUnits="userSpaceOnUse"><stop stop-color="#4BBEFF"/><stop offset="1" stop-color="#0068EA"/></linearGradient><linearGradient id="paint1_linear" x1="8.466" y1="18.463" x2="11.586" y2="19.368" gradientUnits="userSpaceOnUse"><stop stop-color="#4BBEFF"/><stop offset="1" stop-color="#0068EA"/></linearGradient><linearGradient id="paint2_linear" x1="17.279" y1="8.826" x2="20.374" y2="9.709" gradientUnits="userSpaceOnUse"><stop stop-color="#4BBEFF"/><stop offset="1" stop-color="#0068EA"/></linearGradient><linearGradient id="paint3_linear" x1="5.533" y1="24.326" x2="8.655" y2="25.231" gradientUnits="userSpaceOnUse"><stop stop-color="#4BBEFF"/><stop offset="1" stop-color="#0068EA"/></linearGradient><linearGradient id="paint4_linear" x1="3.737" y1="30.633" x2="6.858" y2="31.534" gradientUnits="userSpaceOnUse"><stop stop-color="#4BBEFF"/><stop offset="1" stop-color="#0068EA"/></linearGradient><linearGradient id="paint5_linear" x1="5.515" y1="49.998" x2="8.625" y2="50.889" gradientUnits="userSpaceOnUse"><stop stop-color="#4BBEFF"/><stop offset="1" stop-color="#0068EA"/></linearGradient><linearGradient id="paint6_linear" x1="3.726" y1="43.69" x2="6.849" y2="44.591" gradientUnits="userSpaceOnUse"><stop stop-color="#4BBEFF"/><stop offset="1" stop-color="#0068EA"/></linearGradient><linearGradient id="paint7_linear" x1="3.134" y1="37.161" x2="6.246" y2="38.056" gradientUnits="userSpaceOnUse"><stop stop-color="#4BBEFF"/><stop offset="1" stop-color="#0068EA"/></linearGradient><linearGradient id="paint8_linear" x1="68.624" y1="56.197" x2="71.747" y2="57.097" gradientUnits="userSpaceOnUse"><stop stop-color="#4BBEFF"/><stop offset="1" stop-color="#0068EA"/></linearGradient><linearGradient id="paint9_linear" x1="69.01" y1="18.802" x2="72.131" y2="19.707" gradientUnits="userSpaceOnUse"><stop stop-color="#4BBEFF"/><stop offset="1" stop-color="#0068EA"/></linearGradient><linearGradient id="paint10_linear" x1="65.11" y1="13.534" x2="68.231" y2="14.434" gradientUnits="userSpaceOnUse"><stop stop-color="#4BBEFF"/><stop offset="1" stop-color="#0068EA"/></linearGradient><linearGradient id="paint11_linear" x1="71.626" y1="50.362" x2="74.734" y2="51.254" gradientUnits="userSpaceOnUse"><stop stop-color="#4BBEFF"/><stop offset="1" stop-color="#0068EA"/></linearGradient><linearGradient id="paint12_linear" x1="74.135" y1="37.553" x2="77.257" y2="38.454" gradientUnits="userSpaceOnUse"><stop stop-color="#4BBEFF"/><stop offset="1" stop-color="#0068EA"/></linearGradient><linearGradient id="paint13_linear" x1="71.877" y1="24.7" x2="74.999" y2="25.601" gradientUnits="userSpaceOnUse"><stop stop-color="#4BBEFF"/><stop offset="1" stop-color="#0068EA"/></linearGradient><linearGradient id="paint14_linear" x1="73.603" y1="31.02" x2="76.725" y2="31.921" gradientUnits="userSpaceOnUse"><stop stop-color="#4BBEFF"/><stop offset="1" stop-color="#0068EA"/></linearGradient><linearGradient id="paint15_linear" x1="64.615" y1="61.384" x2="67.737" y2="62.285" gradientUnits="userSpaceOnUse"><stop stop-color="#4BBEFF"/><stop offset="1" stop-color="#0068EA"/></linearGradient><linearGradient id="paint16_linear" x1="73.474" y1="44.074" x2="76.591" y2="44.971" gradientUnits="userSpaceOnUse"><stop stop-color="#4BBEFF"/><stop offset="1" stop-color="#0068EA"/></linearGradient><linearGradient id="paint17_linear" x1="41.523" y1="72.575" x2="44.647" y2="73.476" gradientUnits="userSpaceOnUse"><stop stop-color="#4BBEFF"/><stop offset="1" stop-color="#0068EA"/></linearGradient><linearGradient id="paint18_linear" x1="54.117" y1="69.145" x2="57.238" y2="70.049" gradientUnits="userSpaceOnUse"><stop stop-color="#4BBEFF"/><stop offset="1" stop-color="#0068EA"/></linearGradient><linearGradient id="paint19_linear" x1="47.98" y1="71.449" x2="51.096" y2="72.349" gradientUnits="userSpaceOnUse"><stop stop-color="#4BBEFF"/><stop offset="1" stop-color="#0068EA"/></linearGradient><linearGradient id="paint20_linear" x1="60.309" y1="9.068" x2="63.431" y2="9.968" gradientUnits="userSpaceOnUse"><stop stop-color="#4BBEFF"/><stop offset="1" stop-color="#0068EA"/></linearGradient><linearGradient id="paint21_linear" x1="59.724" y1="65.75" x2="62.846" y2="66.65" gradientUnits="userSpaceOnUse"><stop stop-color="#4BBEFF"/><stop offset="1" stop-color="#0068EA"/></linearGradient><linearGradient id="paint22_linear" x1="34.969" y1="72.502" x2="38.091" y2="73.402" gradientUnits="userSpaceOnUse"><stop stop-color="#4BBEFF"/><stop offset="1" stop-color="#0068EA"/></linearGradient><linearGradient id="paint23_linear" x1=".277" y1="-3.326" x2="78.38" y2="12.549" gradientUnits="userSpaceOnUse"><stop stop-color="#4BBEFF"/><stop offset="1" stop-color="#0068EA"/></linearGradient><linearGradient id="paint24_linear" x1="28.535" y1="10.768" x2="36.25" y2="12.959" gradientUnits="userSpaceOnUse"><stop stop-color="#4BBEFF"/><stop offset="1" stop-color="#0068EA"/></linearGradient><linearGradient id="paint25_linear" x1="27.93" y1="10.455" x2="45.462" y2="15.402" gradientUnits="userSpaceOnUse"><stop stop-color="#4BBEFF"/><stop offset="1" stop-color="#0068EA"/></linearGradient><clipPath id="clip0"><path fill="#fff" d="M0 0h80v80H0z"/></clipPath></defs></svg>