<svg width="80" height="80" fill="none" xmlns="http://www.w3.org/2000/svg"><g clip-path="url(#clip0)"><path d="M29.442 32.697H23.86a1.172 1.172 0 100 2.344h5.582a2.45 2.45 0 002.45-2.444v-8.785a2.45 2.45 0 00-2.45-2.444H23.86a1.172 1.172 0 000 2.344h5.582c.055 0 .106.049.106.1v3.223H23.86a1.172 1.172 0 000 2.343h5.688v3.219c0 .051-.051.1-.106.1z" fill="url(#paint0_linear)"/><path d="M36.886 23.712h5.587a1.172 1.172 0 100-2.344h-5.587a2.447 2.447 0 00-2.445 2.444v8.785a2.447 2.447 0 002.445 2.443h4.31a2.45 2.45 0 002.449-2.443v-3.119a2.45 2.45 0 00-2.45-2.444h-4.41v-3.222c0-.05.05-.1.1-.1zm4.31 5.666c.056 0 .105.047.105.1v3.119c0 .051-.05.1-.105.1h-4.31c-.051 0-.101-.05-.101-.1v-3.219h4.41z" fill="url(#paint1_linear)"/><path d="M48.64 21.368a2.447 2.447 0 00-2.446 2.444v8.785a2.447 2.447 0 002.445 2.443h4.31a2.447 2.447 0 002.445-2.443v-8.785a2.447 2.447 0 00-2.445-2.444h-4.31zm4.41 2.444v8.785c0 .05-.05.1-.101.1h-4.31a.105.105 0 01-.1-.1v-8.785c0-.053.047-.1.1-.1h4.31c.051 0 .101.05.101.1z" fill="url(#paint2_linear)"/><path d="M57.858 19.441a1.172 1.172 0 101.657 1.657l.004-.004a1.17 1.17 0 00-.002-1.655 1.175 1.175 0 00-1.66.002z" fill="url(#paint3_linear)"/><path d="M74.763 45.755c-2.657-1.45-6.358-2.729-10.771-3.728a27.67 27.67 0 003.884-14.17 1.172 1.172 0 10-2.343 0c0 14.07-11.455 25.515-25.535 25.515S14.463 41.926 14.463 27.858c0-14.07 11.455-25.515 25.535-25.515 12.082 0 22.604 8.569 25.02 20.374a1.172 1.172 0 102.295-.47c-1.267-6.196-4.67-11.837-9.58-15.886A27.94 27.94 0 0039.999 0c-15.373 0-27.88 12.497-27.88 27.858 0 5.17 1.419 10.015 3.885 14.169-4.412 1-8.113 2.278-10.77 3.728-3.42 1.867-5.155 4-5.155 6.342v10.847c0 4.111 5.516 7.657 15.533 9.984a1.17 1.17 0 10.53-2.283c-10.115-2.35-13.72-5.519-13.72-7.7v-6.418c2.023 1.785 5.333 3.367 9.85 4.684 7.422 2.164 17.268 3.356 27.726 3.356.647 0 1.172-.525 1.172-1.172v-2.562l11.066 7.983-11.066 7.987v-2.56c0-.648-.525-1.173-1.172-1.173-6.493 0-12.913-.482-18.564-1.394a1.172 1.172 0 00-.373 2.314c5.431.877 11.55 1.364 17.765 1.418v3.025c0 .635.221 1.094.659 1.366.24.15.48.2.7.2.386 0 .709-.158.848-.227a1.29 1.29 0 00.168-.101l12.893-9.306c.597-.338.95-.91.95-1.549 0-.639-.353-1.21-.95-1.549L41.2 57.966a1.17 1.17 0 00-.157-.096c-.218-.11-.886-.448-1.552-.038-.441.271-.665.733-.665 1.371v3.014c-9.801-.085-18.96-1.233-25.898-3.256a41.22 41.22 0 01-4.093-1.413c4.828-1.98 11.904-3.475 19.95-4.188a27.735 27.735 0 0011.213 2.355c3.987 0 7.78-.842 11.213-2.355 8.053.714 15.136 2.212 19.965 4.194-1.98.81-4.479 1.593-7.578 2.3-1.76.407-1.76 1.917-1.76 2.485v9.116c0 .224 0 .906.56 1.355.192.154.493.313.915.313.127 0 .265-.014.414-.047 10.443-2.32 16.194-5.919 16.194-10.132V52.096c0-2.34-1.735-4.474-5.158-6.341zM6.069 56.223c-2.348-1.331-3.646-2.76-3.646-4.126 0-2.925 5.845-6.027 14.957-7.974a28.095 28.095 0 007.71 7.264c-7.935.949-14.571 2.63-19.021 4.836zm71.51 6.721c0 2.722-5.224 5.677-13.397 7.623V62.34c0-.091.002-.16.004-.214 6.31-1.446 10.856-3.369 13.393-5.613v6.432zm-3.64-6.716c-4.45-2.208-11.09-3.892-19.031-4.841a28.095 28.095 0 007.71-7.264c9.115 1.948 14.96 5.05 14.96 7.974 0 1.186-1.06 2.658-3.639 4.131z" fill="url(#paint4_linear)"/></g><defs><linearGradient id="paint0_linear" x1="21.929" y1="20.8" x2="34.72" y2="23.282" gradientUnits="userSpaceOnUse"><stop stop-color="#4BBEFF"/><stop offset="1" stop-color="#0068EA"/></linearGradient><linearGradient id="paint1_linear" x1="33.682" y1="20.799" x2="46.474" y2="23.282" gradientUnits="userSpaceOnUse"><stop stop-color="#4BBEFF"/><stop offset="1" stop-color="#0068EA"/></linearGradient><linearGradient id="paint2_linear" x1="45.436" y1="20.799" x2="58.221" y2="23.28" gradientUnits="userSpaceOnUse"><stop stop-color="#4BBEFF"/><stop offset="1" stop-color="#0068EA"/></linearGradient><linearGradient id="paint3_linear" x1="57.321" y1="18.999" x2="60.446" y2="19.901" gradientUnits="userSpaceOnUse"><stop stop-color="#4BBEFF"/><stop offset="1" stop-color="#0068EA"/></linearGradient><linearGradient id="paint4_linear" x1="-6.503" y1="-3.326" x2="99.835" y2="27.276" gradientUnits="userSpaceOnUse"><stop stop-color="#4BBEFF"/><stop offset="1" stop-color="#0068EA"/></linearGradient><clipPath id="clip0"><path fill="#fff" d="M0 0h80v80H0z"/></clipPath></defs></svg>