<svg width="80" height="80" fill="none" xmlns="http://www.w3.org/2000/svg"><path d="M74.319 18.807c.447-1.22.677-2.508.68-3.807 0-7.581-7.85-13.75-17.5-13.75S40 7.419 40 15c.004 1.278.227 2.547.66 3.75H6.249a5 5 0 00-5 5V62.5a5 5 0 005 5h25.9l-.625 2.5H28.75A3.75 3.75 0 0025 73.75v3.75a1.25 1.25 0 001.25 1.25h27.5A1.25 1.25 0 0055 77.5v-3.75A3.75 3.75 0 0051.25 70h-2.774l-.625-2.5H73.75a5 5 0 005-5V23.75a4.99 4.99 0 00-4.431-4.943zm-.57 2.443a2.5 2.5 0 012.5 2.5v15h-22.5V28.41c.115.018.225.046.34.064l2.292 4.585a1.25 1.25 0 002.238 0l2.292-4.585a17.445 17.445 0 0012.184-7.224h.655zM62.5 48.75a2.5 2.5 0 115.002 0 2.5 2.5 0 01-5.001 0zm2.5 5a5 5 0 015 5H60a5 5 0 015-5zm3.617-1.566a5 5 0 10-7.232 0A7.5 7.5 0 0057.5 58.75h-3.75v-17.5h22.5v17.5H72.5a7.5 7.5 0 00-3.884-6.566zM37.5 48.75a2.5 2.5 0 115 0 2.5 2.5 0 01-5 0zm2.5 5a5 5 0 015 5H35a5 5 0 015-5zm3.616-1.566a5 5 0 10-7.232 0A7.5 7.5 0 0032.5 58.75h-3.75v-17.5h22.5v17.5H47.5a7.5 7.5 0 00-3.884-6.566zM12.5 48.75a2.5 2.5 0 115 0 2.5 2.5 0 01-5 0zm2.5 5a5 5 0 015 5H10a5 5 0 015-5zm3.616-1.566a5 5 0 10-7.232 0A7.5 7.5 0 007.5 58.75H3.75v-17.5h22.5v17.5H22.5a7.5 7.5 0 00-3.884-6.566zM12.5 28.75a2.5 2.5 0 115 0 2.5 2.5 0 01-5 0zm2.5 5a5 5 0 015 5H10a5 5 0 015-5zm22.5-5a2.5 2.5 0 115 0 2.5 2.5 0 01-5 0zm2.5 5a5 5 0 015 5H35a5 5 0 015-5zm17.5-30c8.271 0 15 5.046 15 11.25 0 5.437-5.403 10.202-12.566 11.086a1.25 1.25 0 00-.965.681l-1.47 2.938-1.468-2.938a1.25 1.25 0 00-.965-.681C47.902 25.202 42.5 20.437 42.5 15c0-6.204 6.729-11.25 15-11.25zm-6.25 24.086V38.75H47.5a7.5 7.5 0 00-3.884-6.566 5 5 0 10-7.232 0A7.5 7.5 0 0032.5 38.75h-3.75v-17.5h13.155a16.562 16.562 0 009.345 6.586zm-45-6.586h20v17.5H22.5a7.5 7.5 0 00-3.884-6.566 5 5 0 10-7.232 0A7.5 7.5 0 007.5 38.75H3.75v-15a2.5 2.5 0 012.5-2.5zm46.25 52.5v2.5h-25v-2.5a1.25 1.25 0 011.25-1.25h22.5a1.25 1.25 0 011.25 1.25zM45.899 70H34.1l.625-2.5h10.548l.625 2.5zm27.85-5H6.25a2.5 2.5 0 01-2.5-2.5v-1.25h72.5v1.25a2.5 2.5 0 01-2.5 2.5z" fill="url(#paint0_linear)"/><path d="M51.25 13.75h-2.5v2.5h2.5v-2.5z" fill="url(#paint1_linear)"/><path d="M56.25 13.75h-2.5v2.5h2.5v-2.5z" fill="url(#paint2_linear)"/><path d="M61.25 13.75h-2.5v2.5h2.5v-2.5z" fill="url(#paint3_linear)"/><path d="M66.25 13.75h-2.5v2.5h2.5v-2.5z" fill="url(#paint4_linear)"/><defs><linearGradient id="paint0_linear" x1="-5.139" y1="-1.972" x2="98.048" y2="27.781" gradientUnits="userSpaceOnUse"><stop stop-color="#4BBEFF"/><stop offset="1" stop-color="#0068EA"/></linearGradient><linearGradient id="paint1_linear" x1="48.544" y1="13.646" x2="51.872" y2="14.606" gradientUnits="userSpaceOnUse"><stop stop-color="#4BBEFF"/><stop offset="1" stop-color="#0068EA"/></linearGradient><linearGradient id="paint2_linear" x1="53.544" y1="13.646" x2="56.872" y2="14.606" gradientUnits="userSpaceOnUse"><stop stop-color="#4BBEFF"/><stop offset="1" stop-color="#0068EA"/></linearGradient><linearGradient id="paint3_linear" x1="58.544" y1="13.646" x2="61.872" y2="14.606" gradientUnits="userSpaceOnUse"><stop stop-color="#4BBEFF"/><stop offset="1" stop-color="#0068EA"/></linearGradient><linearGradient id="paint4_linear" x1="63.544" y1="13.646" x2="66.872" y2="14.606" gradientUnits="userSpaceOnUse"><stop stop-color="#4BBEFF"/><stop offset="1" stop-color="#0068EA"/></linearGradient></defs></svg>