<svg width="60" height="60" fill="none" xmlns="http://www.w3.org/2000/svg"><g clip-path="url(#clip0)" fill="#fff"><path d="M21.963 46.793v-.5H4.858A4.363 4.363 0 01.5 41.935V6.425a4.363 4.363 0 014.358-4.357h50.284A4.363 4.363 0 0159.5 6.426v35.51a4.362 4.362 0 01-4.358 4.357H38.038v10.9h5.075a.327.327 0 010 .653h-25.5a.327.327 0 110-.654h4.35V46.793zM4.857 2.721h0a3.707 3.707 0 00-3.703 3.703V37.93h57.692V6.425v0a3.707 3.707 0 00-3.703-3.704h0H4.856zm32.026 54.471h.5V46.293H22.616v10.9h14.267zm18.26-11.553h0a3.707 3.707 0 003.703-3.703v0-3.353H1.154v3.353h0a3.707 3.707 0 003.703 3.703h50.285z" stroke="#fff"/><path d="M25.804 24.41c.286 0 .506-.091.571-.338l.495-1.73h2.976l.494 1.73c.065.247.286.338.572.338.455 0 1.066-.3 1.066-.702a.582.582 0 00-.026-.13l-2.509-8.176c-.117-.39-.597-.572-1.091-.572-.481 0-.962.182-1.08.572l-2.509 8.176a.77.77 0 00-.026.13c0 .416.612.702 1.067.702zm2.547-7.383l1.131 3.99h-2.261l1.13-3.99zm5.368 7.383c.416 0 .844-.183.844-.534V15.43c0-.364-.428-.52-.844-.52-.43 0-.845.156-.845.52v8.447c0 .351.416.533.845.533z"/><path d="M7.824 23.783a3.454 3.454 0 003.356-2.63h6.306c.07 1.059.275 2.105.61 3.112h-.45a3.51 3.51 0 00-3.505 3.506 1.854 1.854 0 01-1.853 1.852h-.516a3.46 3.46 0 100 1.654h.516a3.51 3.51 0 003.506-3.506 1.854 1.854 0 011.852-1.852h1.136a12.524 12.524 0 0011.223 6.931 12.54 12.54 0 0011.185-6.93h1.165c1.022.002 1.85.83 1.851 1.852a3.51 3.51 0 003.506 3.506h.517a3.459 3.459 0 100-1.653h-.517a1.855 1.855 0 01-1.852-1.853 3.51 3.51 0 00-3.505-3.506h-.485a12.601 12.601 0 00.607-3.112h6.343a3.459 3.459 0 100-1.654h-6.342a12.395 12.395 0 00-.61-3.112h.486a3.51 3.51 0 003.506-3.506 1.854 1.854 0 011.852-1.853h.517a3.459 3.459 0 100-1.654h-.517a3.51 3.51 0 00-3.506 3.507 1.855 1.855 0 01-1.852 1.852h-1.171a12.518 12.518 0 00-22.405 0h-1.132a1.855 1.855 0 01-1.852-1.852 3.51 3.51 0 00-3.506-3.506h-.516a3.454 3.454 0 100 1.653h.516a1.854 1.854 0 011.852 1.853 3.51 3.51 0 003.506 3.506h.448a12.492 12.492 0 00-.607 3.112H11.18a3.456 3.456 0 10-3.356 4.284zm1.866 7.942a1.803 1.803 0 11-2.548-2.55 1.803 1.803 0 012.548 2.55zm40.62-2.55a1.804 1.804 0 112.55 2.551 1.804 1.804 0 01-2.55-2.551zm.59-10.125a1.804 1.804 0 110 2.551 1.791 1.791 0 010-2.55zm-.59-10.124a1.804 1.804 0 112.55 2.553 1.804 1.804 0 01-2.55-2.553zm-40.62 2.55a1.802 1.802 0 11-2.547-2.55 1.802 1.802 0 012.547 2.55zM31.05 9.51c5.974.588 10.34 5.91 9.75 11.883-.59 5.974-5.91 10.34-11.884 9.75-5.974-.589-10.339-5.909-9.75-11.883A10.8 10.8 0 0131.05 9.51zm-24.5 9.541a1.803 1.803 0 110 2.55 1.792 1.792 0 010-2.55z"/></g><defs><clipPath id="clip0"><path fill="#fff" d="M0 0h60v60H0z"/></clipPath></defs></svg>