<svg width="60" height="60" fill="none" xmlns="http://www.w3.org/2000/svg"><g clip-path="url(#clip0)" fill="#fff"><path d="M45.43 54.377a1.172 1.172 0 00-1.602-.425l-.045.026a1.172 1.172 0 001.176 2.027l.045-.026c.56-.325.75-1.042.425-1.602z"/><path d="M55.98 15.01C51.974 8.072 45.507 3.11 37.768 1.036 30.03-1.038 21.948.026 15.01 4.032 8.072 8.038 3.11 14.506 1.035 22.244c-2.073 7.738-1.01 15.82 2.996 22.759A29.986 29.986 0 0030.026 60c3.64 0 7.274-.662 10.709-1.982a1.172 1.172 0 10-.841-2.188c-9.143 3.515-19.041 1.918-26.436-3.633l1.05-5.48.506-.164a3.65 3.65 0 002.34-4.594l-.37-1.142a1.294 1.294 0 010-.808 3.647 3.647 0 00-2.764-4.715l-2.645-.516-5.103-3.88a1.172 1.172 0 00-1.072-.182l-2.987.97a27.625 27.625 0 01-.005-3.2c.118.11.195.185.242.234.059.098.131.187.216.264.244.223.465.323.93.323.426 0 1.057-.085 2.1-.239a116.8 116.8 0 001.981-.312 1.172 1.172 0 00.774-1.816l-1.436-2.107 2.058-1.472c.137-.098.251-.224.335-.37l3.19-5.57 1.286-1.378a4.95 4.95 0 00.955-5.25 5.39 5.39 0 00-2.135-2.514 27.733 27.733 0 013.277-2.218 27.477 27.477 0 0113.504-3.696L27.593 4.99l-7.76 2.72c-.315.11-.568.35-.695.659l-2.167 5.253c-.154.373-.105.8.13 1.128l3.164 4.433c-.453.414-.894 1.016-1.421 1.764-.232.328-.45.638-.6.812l-.393.445c-.68.766-1.384 1.558-1.885 2.616-1.099 2.327-.877 5.032.58 7.059 1.409 1.96 3.731 2.956 6.21 2.665.404-.048.78-.141 1.145-.231 1.004-.249 1.322-.274 1.645.028.157.147.17.175.168.673-.002.316-.005.71.104 1.16.175.72.627 1.219.99 1.618.181.2.368.405.426.543.365.875.206 1.36-.143 2.423l-.09.28c-.53 1.64.208 3.266.86 4.701.211.466.411.906.542 1.295 1.054 3.126 1.843 3.842 2.477 4.13a2.44 2.44 0 001.023.218c1.69 0 3.452-1.569 4.262-2.563.508-.624.634-1.25.725-1.706.046-.227.081-.407.15-.524.105-.18.228-.318.384-.494.314-.354.706-.794.959-1.592.192-.606.332-.755.795-1.248l.259-.278c1.56-1.698 1.159-2.995.733-4.369-.358-1.156.268-1.895 1.783-3.306.657-.611 1.336-1.244 1.86-2.004.23-.332.93-1.344.497-2.347-.424-.983-1.501-1.148-2.367-1.28-.342-.053-.858-.133-1.023-.24-.725-.474-1.168-1.463-1.597-2.42-.086-.19-.17-.379-.255-.561-.153-.326-.305-.72-.466-1.136-.426-1.104-.91-2.355-1.732-3.226-.74-.784-2.133-1.161-3.363-1.494a14.422 14.422 0 01-1.061-.313 1.17 1.17 0 00-.673-.041c-.599.14-.972.294-1.25.517-.073.058-.29.251-.417.56-.429-.205-1.019-.598-1.382-.84l-.022-.015c.122-.49.011-.883-.105-1.128-.654-1.385-2.827-1.277-3.256-1.24-.244.02-.552.031-.878.043-.511.018-1.077.038-1.637.101l.029-.08a2.996 2.996 0 012.813-1.98h.666a1.172 1.172 0 000-2.343h-.666a5.349 5.349 0 00-4.536 2.53l-1.748-2.449 1.72-4.168 7.582-2.658c.208-.073.392-.203.529-.376l3.37-4.228c8.613.82 16.72 5.648 21.366 13.695a27.348 27.348 0 012.761 6.707l-.497.443a3.13 3.13 0 00-1.043 2.305l-.81-2.226a2.925 2.925 0 00-.527-.905l-1.444-1.69a2.937 2.937 0 00-2.236-1.03h-1.767a1.695 1.695 0 00-1.412 2.638l.179.268a12.986 12.986 0 01-3.87 2.298l-2.421-4.64v-1.035c0-.32-.131-.626-.363-.847l-2.181-2.083a1.174 1.174 0 00-.421-.258l-1.964-.69a1.171 1.171 0 10-.777 2.211l1.726.607 1.636 1.562v.82c0 .19.046.376.133.543l3.033 5.809a1.17 1.17 0 001.444.557l.883-.326a15.336 15.336 0 005.498-3.519 1.172 1.172 0 00.147-1.478l-.063-.094h.56c.175 0 .34.076.454.21l1.444 1.69a.595.595 0 01.107.183l1.593 4.381a1.172 1.172 0 001.93.428l.758-.758c.48-.48.81-1.088.969-1.762 1.173 9.399-2.513 19.122-10.303 25.236a1.171 1.171 0 101.447 1.843 29.977 29.977 0 0010.88-17.777A29.972 29.972 0 0055.98 15.01zM5.541 33.135l4.832 3.674c.143.109.309.183.485.218l2.912.569c.372.072.682.292.873.619.192.326.232.704.114 1.064a3.623 3.623 0 00-.003 2.263l.372 1.142a1.304 1.304 0 01-.836 1.64l-1.165.38a1.171 1.171 0 00-.789.893l-.937 4.892a27.96 27.96 0 01-5.338-6.658 27.504 27.504 0 01-3.404-9.759l2.884-.937zm6.83-18.69l-1.379 1.477a1.18 1.18 0 00-.16.217l-3.13 5.465-2.783 1.99a1.172 1.172 0 00-.286 1.613l1.04 1.526c-.6.09-1.138.163-1.496.202-.068-.066-.14-.133-.215-.202a59.116 59.116 0 00-1.242-1.11 27.696 27.696 0 018.253-15.674 3.05 3.05 0 011.9 1.738 2.6 2.6 0 01-.502 2.758zm9.554 6.404c.523-.294 1.736-.338 2.621-.369.355-.012.69-.024.99-.05.158-.013.334-.01.5.003a1.171 1.171 0 00.538 1.457c.22.118.526.322.85.538.916.61 1.954 1.303 2.93 1.365.886.057 1.38-.448 1.591-.663.017-.017.033-.035.05-.05.119-.097.23-.227.313-.384.188.053.385.107.587.161.693.188 1.985.538 2.27.84.507.538.902 1.56 1.25 2.463.177.456.343.886.53 1.285.08.171.159.347.24.526.54 1.206 1.153 2.573 2.453 3.423.59.386 1.312.496 1.95.594l.255.04c-.378.528-.917 1.03-1.487 1.56-1.45 1.351-3.256 3.033-2.424 5.715.392 1.267.41 1.404-.22 2.09l-.242.259c-.54.575-.967 1.03-1.32 2.143-.103.323-.236.473-.478.745a5.159 5.159 0 00-.655.868c-.266.455-.354.893-.425 1.245-.07.346-.108.52-.244.687a6.85 6.85 0 01-1.48 1.308c-.55.35-.872.398-.982.391-.125-.134-.578-.721-1.262-2.752-.169-.501-.403-1.017-.63-1.516-.498-1.099-1.014-2.236-.763-3.012l.087-.27c.401-1.221.78-2.376.079-4.056-.214-.512-.554-.886-.853-1.216-.194-.213-.414-.455-.448-.594-.041-.17-.04-.366-.038-.593.004-.612.01-1.538-.91-2.399-1.297-1.214-2.81-.84-3.81-.592a7.285 7.285 0 01-.855.178c-1.646.193-3.116-.428-4.034-1.705-.96-1.336-1.099-3.133-.363-4.69.356-.754.894-1.36 1.517-2.06.136-.154.273-.308.41-.466.23-.264.48-.62.747-.998.317-.45.908-1.29 1.165-1.45z"/><path d="M48.05 40.345l-.564-2.125a1.172 1.172 0 00-2.163-.258c-.128.236-.244.487-.356.73-.188.408-.382.83-.585 1.062-.113.131-.405.272-.688.408-.674.326-1.598.772-1.951 1.897-.22.698-.138 1.25-.078 1.653.052.35.064.471-.03.69l-.012.028c-.373.876-1.067 2.505-.093 3.89.694.989 1.424 1.243 1.991 1.243.111 0 .216-.01.313-.025 1.195-.195 2.093-1.439 2.828-3.913l1.378-4.646c.062-.206.065-.426.01-.634zm-3.635 4.613c-.374 1.261-.705 1.85-.896 2.112a2.248 2.248 0 01-.072-.097c-.224-.319.11-1.104.332-1.624l.012-.028c.357-.838.262-1.482.192-1.952-.044-.301-.06-.43-.004-.608.046-.147.32-.288.734-.488.183-.089.385-.186.589-.304l-.887 2.989zM31.644 13.929l-.079-.028a1.172 1.172 0 00-.776 2.212l.08.027a1.17 1.17 0 001.493-.718 1.172 1.172 0 00-.718-1.493z"/></g><defs><clipPath id="clip0"><path fill="#fff" d="M0 0h60v60H0z"/></clipPath></defs></svg>