<svg width="60" height="60" fill="none" xmlns="http://www.w3.org/2000/svg"><path d="M58.828 57.656h-.469V23.672c0-.647-.524-1.172-1.172-1.172h-9.374c-.648 0-1.172.525-1.172 1.172v33.984h-3.282V30c0-.647-.524-1.172-1.172-1.172h-9.374c-.648 0-1.172.525-1.172 1.172v27.656h-3.282V36.784c0-.647-.524-1.172-1.172-1.172h-9.375c-.647 0-1.171.525-1.171 1.172v20.872h-3.282V45.703c0-.647-.524-1.172-1.171-1.172H2.812c-.647 0-1.171.525-1.171 1.172v11.953h-.47a1.172 1.172 0 000 2.344h57.657a1.172 1.172 0 000-2.344zm-54.844 0V46.875h7.032v10.781H3.984zm15 0v-19.7h7.032v19.7h-7.032zm15 0V31.172h7.032v26.484h-7.032zm15 0V24.844h7.032v32.812h-7.032zm-.875-40.701c1.257.823 2.125 1.081 3.22 1.153v.876a1.172 1.172 0 002.343 0v-1.012c2.065-.53 3.389-2.296 3.682-4.038.383-2.276-.807-4.255-3.03-5.04a46.335 46.335 0 01-.652-.236V4.464c.525.188.865.43.883.442a1.172 1.172 0 001.41-1.873 6.302 6.302 0 00-2.293-1v-.861a1.172 1.172 0 00-2.344 0v.853c-.13.029-.262.061-.396.101-1.472.443-2.571 1.7-2.87 3.28-.273 1.45.194 2.85 1.221 3.655.522.409 1.167.783 2.045 1.175v5.521c-.693-.066-1.162-.257-1.936-.763a1.172 1.172 0 10-1.283 1.961zm6.933-3.41c-.123.737-.588 1.515-1.37 1.933v-4.326c1.538.618 1.44 1.981 1.37 2.393zM50.73 7.217c-.33-.26-.474-.8-.365-1.376.092-.488.393-1.065.963-1.357v3.13a5.195 5.195 0 01-.598-.397zM7.656 35.504a1.172 1.172 0 001.658 0L22.837 21.98l3.88 3.88a1.172 1.172 0 001.658 0l12.846-12.845.956.957a1.172 1.172 0 002-.83V5.86a1.17 1.17 0 00-1.172-1.171h-7.284a1.172 1.172 0 00-.829 2l.968.968-8.314 8.314-3.88-3.88a1.172 1.172 0 00-1.658 0L3.954 30.143a1.172 1.172 0 000 1.657l3.702 3.703zm15.18-20.929l3.882 3.881a1.172 1.172 0 001.657 0l9.971-9.971a1.172 1.172 0 00.163-1.454h3.325v3.33a1.172 1.172 0 00-1.442.17L27.546 23.376l-3.88-3.881a1.172 1.172 0 00-1.658 0L8.485 33.018 6.44 30.972l16.397-16.397z" fill="#fff"/></svg>