<svg width="60" height="60" fill="none" xmlns="http://www.w3.org/2000/svg"><g clip-path="url(#clip0)" fill="#fff"><path d="M53.88 31.056h-.585v-3.204a8.143 8.143 0 00-.677-3.258 5.58 5.58 0 00.807-2.894v-.232a.879.879 0 10-1.758 0v.232c0 .368-.053.724-.15 1.062a8.23 8.23 0 00-3.84-2.688v-.225a7.921 7.921 0 003.99-3.098v.586a.879.879 0 101.758 0V7.894C53.425 3.541 49.883 0 45.53 0h-.862c-4.353 0-7.894 3.541-7.894 7.894V21.7c0 1.058.295 2.048.805 2.894a8.144 8.144 0 00-.676 3.258v3.204H23.352v-3.942h8.001a2.704 2.704 0 002.701-2.701v-13.25a2.704 2.704 0 00-2.7-2.701H9.275a2.704 2.704 0 00-2.7 2.7v13.25a2.704 2.704 0 002.7 2.702h1.078a.879.879 0 000-1.758H9.276a.945.945 0 01-.943-.944v-13.25c0-.52.423-.943.943-.943h22.077c.52 0 .944.424.944.944v13.25c0 .52-.424.943-.944.943h-8v-4.314a1.4 1.4 0 00-1.398-1.397h-3.28a1.4 1.4 0 00-1.398 1.398v4.313h-2.832a.879.879 0 000 1.758h2.832v3.942H6.12c-.906 0-1.644.738-1.644 1.644v2.758c0 .907.737 1.644 1.644 1.644h.49v22.02c0 .485.393.878.878.878h45.024a.879.879 0 00.879-.879V37.102h.49c.906 0 1.643-.737 1.643-1.643V32.7c0-.906-.737-1.644-1.644-1.644zm-2.342-3.204v3.204H38.661v-3.204a6.447 6.447 0 013.958-5.94 2.582 2.582 0 002.48 1.877 2.582 2.582 0 002.48-1.877 6.447 6.447 0 013.959 5.94zm-7.258-6.64v-.972a7.932 7.932 0 001.64 0v.972a.82.82 0 01-1.64 0zm6.942-8.81a6.13 6.13 0 01-6.123 6.123 6.13 6.13 0 01-6.122-6.122v-1.458c2.025-.382 3.495-.919 4.566-1.663a5.846 5.846 0 001.555-1.585c1.017 1.55 2.68 2.602 6.124 3.25v1.456zm-12.69-4.508a6.144 6.144 0 016.137-6.136h.862a6.144 6.144 0 016.136 6.136v1.348c-4.252-.776-5.081-2.09-5.747-3.825a.879.879 0 00-1.64 0c-.667 1.735-1.495 3.049-5.748 3.825V7.894zm0 8.857a7.92 7.92 0 003.99 3.098v.224a8.23 8.23 0 00-3.84 2.688 3.836 3.836 0 01-.15-1.06v-4.95zm-19.497 4.652h2.56v9.653h-2.56v-9.653zm32.598 36.84H8.367v-21.14h43.266v21.14zm2.133-22.898H6.234v-2.531h47.532v2.53z"/><path d="M42.743 11.182a.879.879 0 00-.879.879v1.356a.879.879 0 101.758 0V12.06a.879.879 0 00-.879-.879zm4.713 3.114a.879.879 0 00.879-.88v-1.355a.879.879 0 10-1.758 0v1.356a.88.88 0 00.88.879z"/></g><defs><clipPath id="clip0"><path fill="#fff" d="M0 0h60v60H0z"/></clipPath></defs></svg>