<svg width="59" height="58" fill="none" xmlns="http://www.w3.org/2000/svg"><path d="M44.25 16.433h1.967v-3.866a.975.975 0 00-.984-.967H41.3v1.933h2.95v2.9z" fill="url(#paint0_linear)"/><path d="M14.75 13.533h2.95V11.6h-3.933a.975.975 0 00-.984.967v3.866h1.967v-2.9z" fill="url(#paint1_linear)"/><path d="M46.217 33.833v-3.866H44.25v2.9H41.3V34.8h3.933a.975.975 0 00.984-.967z" fill="url(#paint2_linear)"/><path d="M13.767 34.8H17.7v-1.933h-2.95v-2.9h-1.967v3.866c0 .534.44.967.984.967z" fill="url(#paint3_linear)"/><path d="M20.65 34.8h17.7a.975.975 0 00.983-.967v-2.88c-.005-2.157-1.457-4.052-3.564-4.652l-3.319-.932v-1.227a4.785 4.785 0 001.967-3.842v-.967a.975.975 0 00.983-.966V17.4c0-3.203-2.642-5.8-5.9-5.8-3.258 0-5.9 2.597-5.9 5.8v.967c0 .534.44.966.983.966v.967a4.785 4.785 0 001.967 3.842v1.227l-3.318.932c-2.108.6-3.56 2.495-3.565 4.652v2.88c0 .534.44.967.983.967zm8.85-21.267c2.162 0 3.919 1.716 3.933 3.841a.981.981 0 01-.649-.51l-.437-.862a.978.978 0 00-.627-.503.997.997 0 00-.8.13l-1.462.96a4.964 4.964 0 01-2.728.811h-1.163c0-2.135 1.76-3.867 3.933-3.867zm-2.77 5.8a6.947 6.947 0 003.818-1.136l.539-.353c.31.537.788.96 1.363 1.208V20.3c0 1.602-1.32 2.9-2.95 2.9-1.63 0-2.95-1.298-2.95-2.9v-.967h.18zm2.77 5.8c.33 0 .66-.032.983-.096V26.1a.952.952 0 00.34.716l-1.323.976-1.323-.976a.952.952 0 00.34-.716v-1.063c.323.064.653.097.983.096zm-7.867 5.82a2.921 2.921 0 012.139-2.793l2.139-.6 2.999 2.213c.35.258.83.258 1.18 0l3-2.212 2.14.6a2.92 2.92 0 012.137 2.792v1.914H35.4v-1.934h-1.967v1.934h-7.866v-1.934H23.6v1.934h-1.967v-1.914z" fill="url(#paint4_linear)"/><path d="M54.083 0H4.917C2.202.003.003 2.165 0 4.833v36.734c.003 2.668 2.202 4.83 4.917 4.833h16.586l-.738 5.8h-2.082c-1.629 0-2.95 1.298-2.95 2.9 0 1.602 1.321 2.9 2.95 2.9h21.634c1.629 0 2.95-1.298 2.95-2.9 0-1.602-1.321-2.9-2.95-2.9h-2.082l-.738-5.8h16.586c2.715-.003 4.914-2.165 4.917-4.833V4.833C58.997 2.165 56.798.003 54.083 0zM4.917 1.933h49.166c1.63 0 2.95 1.299 2.95 2.9v2.9H1.967v-2.9c0-1.601 1.32-2.9 2.95-2.9zm52.116 7.734v27.066H1.967V9.667h55.066zM41.3 55.1c0 .534-.44.967-.983.967H18.683a.975.975 0 01-.983-.967c0-.534.44-.967.983-.967h21.634c.543 0 .983.433.983.967zm-5.047-2.9H22.747l.738-5.8h12.03l.738 5.8zm17.83-7.733H4.917c-1.63 0-2.95-1.299-2.95-2.9v-2.9h55.066v2.9c0 1.601-1.32 2.9-2.95 2.9z" fill="url(#paint5_linear)"/><path d="M51.133 40.6H53.1v1.933h-1.967V40.6z" fill="url(#paint6_linear)"/><path d="M5.9 3.867h1.967V5.8H5.9V3.867z" fill="url(#paint7_linear)"/><path d="M9.833 3.867H11.8V5.8H9.833V3.867z" fill="url(#paint8_linear)"/><path d="M13.767 3.867h1.966V5.8h-1.966V3.867z" fill="url(#paint9_linear)"/><defs><linearGradient id="paint0_linear" x1="40.895" y1="11.399" x2="47.423" y2="13.314" gradientUnits="userSpaceOnUse"><stop stop-color="#4BBEFF"/><stop offset="1" stop-color="#0068EA"/></linearGradient><linearGradient id="paint1_linear" x1="12.378" y1="11.399" x2="18.907" y2="13.314" gradientUnits="userSpaceOnUse"><stop stop-color="#4BBEFF"/><stop offset="1" stop-color="#0068EA"/></linearGradient><linearGradient id="paint2_linear" x1="40.895" y1="29.766" x2="47.423" y2="31.681" gradientUnits="userSpaceOnUse"><stop stop-color="#4BBEFF"/><stop offset="1" stop-color="#0068EA"/></linearGradient><linearGradient id="paint3_linear" x1="12.378" y1="29.766" x2="18.907" y2="31.681" gradientUnits="userSpaceOnUse"><stop stop-color="#4BBEFF"/><stop offset="1" stop-color="#0068EA"/></linearGradient><linearGradient id="paint4_linear" x1="18.045" y1="10.636" x2="44.809" y2="17.177" gradientUnits="userSpaceOnUse"><stop stop-color="#4BBEFF"/><stop offset="1" stop-color="#0068EA"/></linearGradient><linearGradient id="paint5_linear" x1="-4.864" y1="-2.411" x2="73.483" y2="20.569" gradientUnits="userSpaceOnUse"><stop stop-color="#4BBEFF"/><stop offset="1" stop-color="#0068EA"/></linearGradient><linearGradient id="paint6_linear" x1="50.971" y1="40.52" x2="53.583" y2="41.286" gradientUnits="userSpaceOnUse"><stop stop-color="#4BBEFF"/><stop offset="1" stop-color="#0068EA"/></linearGradient><linearGradient id="paint7_linear" x1="5.738" y1="3.786" x2="8.349" y2="4.552" gradientUnits="userSpaceOnUse"><stop stop-color="#4BBEFF"/><stop offset="1" stop-color="#0068EA"/></linearGradient><linearGradient id="paint8_linear" x1="9.671" y1="3.786" x2="12.283" y2="4.552" gradientUnits="userSpaceOnUse"><stop stop-color="#4BBEFF"/><stop offset="1" stop-color="#0068EA"/></linearGradient><linearGradient id="paint9_linear" x1="13.604" y1="3.786" x2="16.216" y2="4.552" gradientUnits="userSpaceOnUse"><stop stop-color="#4BBEFF"/><stop offset="1" stop-color="#0068EA"/></linearGradient></defs></svg>