<svg width="60" height="60" fill="none" xmlns="http://www.w3.org/2000/svg"><g clip-path="url(#clip0)"><path d="M35.234.27a.265.265 0 00.03.002v-.25l.056-.001a.639.639 0 01.088 0m-.174.25l.151-.001.023-.25m-.174.25C28.16.028 20.919 1.963 15.613 5.932c-5.301 3.964-8.677 9.96-8.037 17.876h0c.002.03.007.05.014.082l.015.073.007.038-.004.038c-.016.145-.016.29.018.447M35.234.27h.151m.023-.25l-.023.25m.023-.25l-.023.25m0 0C49.3 1.523 58.672 14.573 56.8 28.118l-.005.03.003.03c.014.14.013.279-.02.427h0c-.44 2.051-1.353 4.18-2.413 6.37-.382.788-.784 1.585-1.189 2.388-.714 1.418-1.438 2.854-2.077 4.289-2.003 4.499-3.242 9.128-.86 13.571.233.433.2.836.03 1.16-.175.334-.5.594-.863.707l-.03.01-.026.016a1.383 1.383 0 01-.546.19l-2.877.39c-5.997.815-11.983 1.629-18.015 2.05-.334.023-.582-.062-.764-.2l-.085-.063-.105.017c-.603.097-1.243-.15-1.485-.858-.756-2.209-2.287-3.41-4.119-3.971-1.818-.556-3.93-.481-5.879-.165h0a1.438 1.438 0 01-.297.018l-.03-.002-.03.006c-.098.02-.2.031-.308.03h0c-2.319-.043-4.299-1.344-4.741-3.665a1.678 1.678 0 01-.022-.398v-.033a1.572 1.572 0 01.021-.436v-.001c.116-.577.105-1.254-.273-1.704l-.044-.052-.065-.023a1.398 1.398 0 01-.254-.119h0c-1.677-.996-2.222-2.796-1.384-4.429l.058-.113-.057-.114c-.455-.9-.544-1.857-.366-2.814l.043-.234-.232-.055c-.887-.21-1.736-.509-2.546-.956l-.027-.015-.03-.008a1.538 1.538 0 01-.616-.326c-1.213-1.056-1.613-2.593-1.083-4.113.111-.32.317-.58.573-.748l.036-.024.026-.035a1.4 1.4 0 01.285-.292h0c3.08-2.3 4.315-5.613 3.514-9.365m0 0l-.245.052.245-.052zM35.254 3.073l.008-.25a.228.228 0 00.033-.002l.065-.005h.016l.015.001a.385.385 0 01.049.008c12.151 1.1 20.615 12.944 18.887 24.753a1.586 1.586 0 00-.012.314l.003.034-.008.034c-.491 2.254-1.397 4.482-2.419 6.693-.43.932-.88 1.856-1.327 2.778-.62 1.279-1.24 2.554-1.807 3.843-1.946 4.42-3.197 8.827-1.545 13.396l.105.29-.307.042-.954.13c-6.016.818-12.04 1.637-18.11 2.062h0a.244.244 0 00-.032.005l-.01.002-.064.013-.19.03-.078-.175C25.364 52.154 20.22 51.232 15 52.022l-.034.005-.033-.004a1.495 1.495 0 01-.08-.011.276.276 0 00-.053-.006s0 0 0 0l.005-.25 20.45-48.683zm0 0l.01-.25c-6.364-.22-12.931 1.378-17.77 4.86-4.85 3.49-7.953 8.87-7.364 16.166l.25-.02-.25.02c.002.029.001.05 0 .082l-.004.073v.027l.005.028c.924 4.77-.701 8.84-4.507 11.813l-.074.058-.017.092a2.01 2.01 0 01-.024.112l-.007.027-.001.027c-.004.073-.006.15-.003.23v.023l.006.023.003.014.014.065.003.013.004.012.009.026.013.04.007.022.01.019c.044.08.092.156.143.23l.039.057.063.029.074.032a.817.817 0 01.1.048c.962.575 2.03.898 3.128 1.044a.357.357 0 00.045.01l.03.003.029-.004c.435-.048.919.166 1.22.538.292.36.403.855.122 1.387h0c-.239.453-.402.89-.418 1.337-.017.455.12.894.434 1.348h0c.16.232.2.517.147.81l-.009.045.01.046c.056.297.015.583-.146.811h0a11.23 11.23 0 00-.273.414l-.028.043-.009.014-.004.008-.005.008-.006.011a.302.302 0 00-.006.014h0a.181.181 0 00-.004.012M35.254 3.073a.74.74 0 00.068-.003.722.722 0 01.046-.004.06.06 0 01.02.004.158.158 0 00.02.003c12 1.081 20.382 12.786 18.672 24.47a1.78 1.78 0 00-.014.364L10.243 44.97m0 0a2.109 2.109 0 00-.07.25l-.003.017-.172.741.366-.313m-.121-.695l.121.695m0 0l.052.044.006.005.045.038.057.014c.126.03.231.073.32.14 1.486 1.134 1.991 2.664 1.732 4.456l-.007.047.011.047c.056.231.129.464.24.643m-2.456-5.434l2.685 5.33a.321.321 0 00-.06.047.396.396 0 00-.046.185.25.25 0 00.04.102h0l.207-.138s0 0 0 0l.02.015-.197.16a1.357 1.357 0 00-.07-.066l-.086-.075v-.064m-.037-.062v-.001l.212-.131-.212.132s0 0 0 0zm0 0l.032.054.005.008m0 0l.012.022c.003.007.002.006 0 0a.19.19 0 01-.01-.04.24.24 0 01-.002-.033v.051zm.328.278a.248.248 0 01.06-.206l.162.137a1.181 1.181 0 00-.024-.022.445.445 0 01-.165.091h-.033zm0 0a.418.418 0 01-.049-.004.441.441 0 01-.062-.023.253.253 0 01-.018-.01l-.007-.005-.005-.004h0l.004.003.028.022a6.139 6.139 0 01.16.135l.005.004h0l-.002-.001c0-.002-.004-.006-.008-.011a.241.241 0 01-.045-.106zm-2.94-6.184a.237.237 0 01.076-.07l.092.109h.003l.002.005a.24.24 0 01.002.042l.005.008-.117.17a.25.25 0 01-.107-.097.245.245 0 01.044-.167zm2.578 5.142c.27-1.87-.26-3.494-1.827-4.69l1.827 4.69z" fill="url(#paint0_linear)" stroke="#fff" stroke-width=".5"/></g><defs><linearGradient id="paint0_linear" x1="-1.786" y1="-2.494" x2="71.853" y2="16.819" gradientUnits="userSpaceOnUse"><stop stop-color="#4BBEFF"/><stop offset="1" stop-color="#0068EA"/></linearGradient><clipPath id="clip0"><path fill="#fff" d="M0 0h60v60H0z"/></clipPath></defs></svg>