<svg width="60" height="60" fill="none" xmlns="http://www.w3.org/2000/svg"><path d="M55.533 46.912a10.582 10.582 0 00-8.667-8.307l-10.092-1.683v-1.457c6.792-2.705 11.613-9.333 11.613-17.078C48.387 8.248 40.139 0 30 0 19.86 0 11.611 8.248 11.611 18.387c0 7.745 4.82 14.373 11.613 17.078v1.457l-10.093 1.683a10.583 10.583 0 00-8.667 8.307L1.71 60h56.58l-2.757-13.088zm-15.197-7.434l-3.052 9.158-5.869-5.135 4.723-4.723 4.198.7zM30 42.18l-4.84-4.839v-1.235a18.28 18.28 0 004.84.668c1.677 0 3.294-.245 4.838-.668v1.235L30 42.18zM13.547 18.387c0-9.072 7.38-16.452 16.452-16.452 9.071 0 16.451 7.38 16.451 16.452 0 9.072-7.38 16.452-16.451 16.452-9.072 0-16.452-7.38-16.452-16.452zM23.86 38.778l4.723 4.723-5.869 5.135-3.052-9.158 4.198-.7zm1.54 19.287H11.726l.848-7.636-1.922-.214-.873 7.85H4.095L6.36 47.31a8.658 8.658 0 017.091-6.797l4.28-.713L21.8 52.01l2.94-2.573 2.262 3.017-1.603 5.61zm2.012 0l1.716-6.003L26.2 48.16l3.757-3.287.044.044.043-.044L33.8 48.16l-2.927 3.902 1.715 6.003h-5.176zm21.938-7.849l-1.923.214.847 7.635H34.6l-1.602-5.61 2.261-3.018 2.94 2.572L42.27 39.8l4.279.714a8.657 8.657 0 017.091 6.797l2.265 10.754H50.22l-.871-7.849z" fill="url(#paint0_linear)"/><path d="M29.516 5.806a5.329 5.329 0 00-5.323 5.323v.484h1.936v-.484a3.39 3.39 0 013.387-3.387 3.39 3.39 0 013.387 3.387v.616a3.37 3.37 0 01-.992 2.396l-2.88 2.878v5.24h1.936V17.82l2.313-2.312a5.29 5.29 0 001.558-3.764v-.615a5.329 5.329 0 00-5.322-5.323z" fill="url(#paint1_linear)"/><path d="M30 25.161a2.907 2.907 0 00-2.904 2.903A2.908 2.908 0 0030 30.968c1.6 0 2.903-1.303 2.903-2.904 0-1.6-1.303-2.903-2.903-2.903zm0 3.871a.969.969 0 010-1.935.969.969 0 010 1.935z" fill="url(#paint2_linear)"/><defs><linearGradient id="paint0_linear" x1="-2.954" y1="-2.494" x2="73.025" y2="18.164" gradientUnits="userSpaceOnUse"><stop stop-color="#4BBEFF"/><stop offset="1" stop-color="#0068EA"/></linearGradient><linearGradient id="paint1_linear" x1="23.316" y1="5.123" x2="38.151" y2="7.89" gradientUnits="userSpaceOnUse"><stop stop-color="#4BBEFF"/><stop offset="1" stop-color="#0068EA"/></linearGradient><linearGradient id="paint2_linear" x1="26.618" y1="24.92" x2="34.349" y2="27.149" gradientUnits="userSpaceOnUse"><stop stop-color="#4BBEFF"/><stop offset="1" stop-color="#0068EA"/></linearGradient></defs></svg>