<svg width="21" height="21" fill="none" xmlns="http://www.w3.org/2000/svg"><path d="M10.5 20.344c5.437 0 9.844-4.407 9.844-9.844 0-5.437-4.407-9.844-9.844-9.844C5.063.656.656 5.063.656 10.5c0 5.437 4.407 9.844 9.844 9.844z" fill="#00AFCA"/><path d="M18.605 10.861c-.23-.131-.492.033-.492.262-.099 1.608-2.92 2.035-4.266 2.035-1.345.033-4.233-.46-4.331-2.034 0-.23-.263-.362-.493-.263-.689.36-.918 1.05-.754 1.739.295 1.247 1.837 2.133 3.15 2.527-.099.23-.132.459-.164.689-.033.262.36.36.557.196.755-.557 1.936-.787 2.92-.787a.296.296 0 000-.59c-.885 0-1.837.164-2.624.524.295-.689.984-1.378 1.739-1.41h.033c1.575.032 4.101-.526 4.757-2.002a1.17 1.17 0 010 .82c-.328 1.05-1.476 1.477-2.559 1.772-.394.098-.23.69.164.558 1.378-.361 2.461-.919 3.019-2.166.262-.656 0-1.444-.656-1.87zm-6.924 3.708c-1.083-.296-1.903-.82-2.56-1.674-.262-.36-.36-.853-.13-1.214.492 1.149 2.1 1.74 3.543 1.936-.328.263-.623.59-.853.952z" fill="#FFE62E"/><path d="M13.781 11.386a2.527 2.527 0 100-5.053 2.527 2.527 0 000 5.053zm0-5.381c.164 0 .197-.099.197-.197 0-.164-.197-.853-.197-.853s-.197.722-.197.853c0 .098.033.197.197.197zm1.083.197c.131.065.23 0 .263-.099.065-.131.13-.886.13-.886s-.458.59-.524.722c0 .099 0 .23.131.263zm1.575 3.74c-.066.131 0 .23.099.263.13.065.885.131.885.131s-.59-.46-.721-.525c-.099 0-.23 0-.263.131zm-3.741 1.575c-.13-.065-.23 0-.262.099-.066.13-.131.886-.131.886s.46-.591.525-.722c0-.099 0-.23-.132-.263zm-1.575-3.74c.066-.132 0-.23-.098-.263-.131-.066-.886-.131-.886-.131s.59.46.722.525c.098 0 .23 0 .262-.131zm4.693-.952c.098.098.23.066.295 0 .098-.098.46-.755.46-.755s-.657.361-.755.46c-.099.098-.099.197 0 .295zm0 4.069c-.099.098-.066.197 0 .295.098.098.754.46.754.46s-.36-.657-.459-.755c-.098-.099-.197-.099-.295 0zm-4.069 0a.207.207 0 00-.295 0c-.099.098-.46.755-.46.755s.656-.361.755-.46c.098-.098.098-.197 0-.295zm0-4.069a.207.207 0 000-.295c-.099-.099-.755-.46-.755-.46s.361.657.46.755c.098.098.196.098.295 0zm4.692.952c.066.13.164.164.262.098.132-.066.722-.525.722-.525s-.754.098-.885.131c-.099.066-.165.132-.099.296zm-1.575 3.74c-.131.066-.164.164-.098.263.065.131.525.722.525.722s-.099-.755-.132-.886c-.065-.099-.13-.164-.295-.099zm-3.741-1.575c-.065-.131-.163-.164-.262-.098-.131.065-.722.525-.722.525s.755-.099.886-.131c.098-.066.164-.132.098-.296zm1.575-3.74c.132-.066.165-.164.099-.263-.066-.131-.525-.722-.525-.722s.098.722.131.886c.066.099.131.164.295.099zm1.642-.165a.179.179 0 00.229-.164c.033-.13-.033-.886-.033-.886s-.328.657-.36.82c-.034.1.032.198.163.23zm2.263 3.38a.179.179 0 00.164.23c.131.033.886-.033.886-.033s-.656-.328-.82-.36c-.099-.034-.197.032-.23.163zm-3.38 2.264a.179.179 0 00-.23.164c-.032.132.034.886.034.886s.328-.656.36-.82c.033-.098-.032-.197-.164-.23zM10.96 8.302c.032-.164-.066-.23-.165-.23-.13-.033-.886.033-.886.033s.657.328.82.36c.1.033.198-.032.23-.163zm4.429-1.838c.131.066.23.033.295-.066.099-.13.296-.82.296-.82s-.558.492-.657.59c-.065.1-.065.23.066.296z" fill="#FFE62E"/><path d="M16.177 10.467c-.066.131-.033.23.065.295.131.099.82.296.82.296s-.492-.558-.59-.656c-.099-.066-.23-.066-.296.065zm-4.004.788c-.13-.066-.23-.033-.295.065-.066.099-.295.82-.295.82s.558-.492.656-.59c.066-.098.066-.23-.066-.295zm-.787-4.003c.066-.132.033-.23-.066-.296-.098-.065-.82-.295-.82-.295s.492.558.59.656c.1.066.23.066.296-.065zm4.791 0c.098.13.197.13.295.065.131-.098.59-.656.59-.656s-.721.23-.82.295c-.098.099-.164.197-.065.296zm-.788 4.003c-.131.098-.131.197-.066.295.099.131.657.59.657.59s-.23-.721-.296-.82c-.098-.098-.197-.164-.295-.065zm-4.003-.788c-.098-.131-.197-.131-.295-.065-.132.098-.591.656-.591.656s.722-.23.82-.296c.099-.098.164-.196.066-.295zm.787-4.003c.132-.098.132-.197.066-.295-.098-.131-.656-.59-.656-.59s.23.721.295.82c.098.098.197.163.295.065zm4.43 1.838c.033.13.131.196.23.164.131-.033.82-.361.82-.361s-.755-.066-.886-.033c-.131 0-.197.066-.164.23zm-2.263 3.379c-.132.033-.198.132-.165.23.033.131.361.82.361.82s.066-.754.033-.886c0-.13-.066-.197-.23-.164zm-3.38-2.264c-.033-.131-.132-.197-.23-.164-.132.033-.82.361-.82.361s.754.066.885.033c.132 0 .197-.066.164-.23zm2.263-3.38c.132-.032.197-.13.165-.23-.033-.13-.361-.82-.361-.82s-.066.755-.033.886c0 .132.065.197.23.164zM5.414 16.931h-.36v1.214H4.33c.361.296.722.525 1.116.788V16.93h-.033zM5.053 2.855v1.214h.361V2.067c-.394.23-.754.492-1.115.788h.754zm-.82.033a2.123 2.123 0 00-.295.262l.984 2.133h-.82V4.069H3.74v1.214h-.82l.95-2.067a5.75 5.75 0 00-.754.787l-.754 1.608 1.28 2.756h-.821V7.153H2.46v3.216h.36V9.023h.854L3.183 10.5l.492 1.444h-.853v-1.346H2.46v3.216h.36V12.6h.821l-1.28 2.756.755 1.608c.23.263.492.525.755.788l-.952-2.068h.82v1.214h.362v-1.214h.82l-.984 2.133c.098.099.196.164.295.263l1.247-2.724L4.2 12.6h.82v1.214h.361v-3.216h-.36v1.346h-.854L4.66 10.5l-.492-1.444h.853v1.346h.361V7.186h-.36V8.4H4.2l1.279-2.756-1.247-2.756zm.722 12.173h-.82v-1.214h-.362v1.214H2.92l1.018-2.166 1.017 2.166zM3.938 11.55l-.263-.755H4.2l-.262.755zm.262-1.345h-.525l.263-.755.262.755zm-.262-2.067L2.92 5.972h.82v1.214h.362V5.972h.82l-.984 2.166z" fill="#FFE62E"/></svg>