<svg width="124" height="124" fill="none" xmlns="http://www.w3.org/2000/svg"><path fill-rule="evenodd" clip-rule="evenodd" d="M61.233 80.938c12.989 0 23.308-10.333 23.308-22.823s-10.32-22.822-23.308-22.822-23.308 10.333-23.308 22.822c0 12.49 10.32 22.823 23.308 22.823zm0 7.77c17.164 0 31.078-13.697 31.078-30.593 0-16.895-13.914-30.592-31.078-30.592S30.156 41.22 30.156 58.115c0 16.896 13.913 30.592 31.077 30.592z" fill="#fff"/><path fill-rule="evenodd" clip-rule="evenodd" d="M60.99 88.707c-16.401 0-28 11.9-31.656 17.822a3.884 3.884 0 11-6.612-4.081c4.438-7.188 18.154-21.51 38.268-21.51 20.047 0 34.708 14.245 39.615 21.342a3.884 3.884 0 01-6.391 4.418c-4.158-6.015-16.755-17.99-33.224-17.99z" fill="#fff"/></svg>