<svg width="50" height="26" fill="none" xmlns="http://www.w3.org/2000/svg"><g clip-path="url(#clip0_51_5683)"><path fill-rule="evenodd" clip-rule="evenodd" d="M24.587.074l.357-.003H25c10.949 0 20.254 7.033 23.637 16.825 1.498 4.336-2.356 8.157-6.944 8.157a16.62 16.62 0 00-4.338-11.22c-.615 6.347-5.95 11.306-12.44 11.306-6.432 0-11.73-4.87-12.422-11.135a12.162 12.162 0 01-.079-1.4c0-6.812 5.42-12.355 12.173-12.53zm.327 16.823a4.286 4.286 0 004.281-4.292 4.289 4.289 0 00-4.28-4.293 4.288 4.288 0 00-4.28 4.292 4.286 4.286 0 004.28 4.293z" fill="#fff"/><path fill-rule="evenodd" clip-rule="evenodd" d="M1.363 16.896c-1.498 4.336 2.356 8.157 6.944 8.157 0-4.238 1.58-8.108 4.186-11.049a12.186 12.186 0 01-.079-1.4c0-6.812 5.42-12.355 12.173-12.53C13.818.248 4.703 7.227 1.363 16.896z" fill="url(#paint0_linear_51_5683)"/><mask id="a" style="mask-type:alpha" maskUnits="userSpaceOnUse" x="12" y="0" width="38" height="26"><path fill-rule="evenodd" clip-rule="evenodd" d="M24.587.074l.357-.003H25c13.806 0 25 11.184 25 24.982h-8.306c0-4.32-1.644-8.257-4.34-11.22-.614 6.347-5.948 11.306-12.44 11.306-6.431 0-11.73-4.87-12.42-11.135a12.162 12.162 0 01-.08-1.4c0-6.812 5.42-12.355 12.173-12.53zm.327 16.823a4.286 4.286 0 004.281-4.292 4.289 4.289 0 00-4.28-4.293 4.288 4.288 0 00-4.28 4.292 4.286 4.286 0 004.28 4.293z" fill="#4293F7"/></mask><g mask="url(#a)"><ellipse opacity=".4" rx="9.482" ry="6.864" transform="matrix(-.88887 -.45817 -.4562 .88988 29.341 15.25)" fill="url(#paint1_linear_51_5683)"/></g></g><defs><linearGradient id="paint0_linear_51_5683" x1="23.57" y1=".071" x2="5.518" y2="23.981" gradientUnits="userSpaceOnUse"><stop stop-color="#C9DEFF"/><stop offset="1" stop-color="#fff"/></linearGradient><linearGradient id="paint1_linear_51_5683" x1="10.738" y1="15.247" x2="7.48" y2=".606" gradientUnits="userSpaceOnUse"><stop stop-color="#fff"/><stop offset="1" stop-color="#7EB8FF"/></linearGradient><clipPath id="clip0_51_5683"><path fill="#fff" transform="matrix(-1 0 0 1 50 .07)" d="M0 0h50v25.068H0z"/></clipPath></defs></svg>