<svg width="20" height="20" fill="none" xmlns="http://www.w3.org/2000/svg"><g clip-path="url(#clip0)"><path d="M19.722 16.63l-2.82 2.798c-.416.427-.968.571-1.505.572-2.376-.071-4.622-1.238-6.467-2.437-3.027-2.202-5.804-4.933-7.547-8.232C.714 7.947-.07 6.18.005 4.637.01 4.056.168 3.486.577 3.11L3.397.293c.585-.498 1.152-.326 1.526.254l2.269 4.302c.239.51.102 1.055-.254 1.42l-1.04 1.038a.51.51 0 00-.105.297c.398 1.542 1.605 2.963 2.671 3.941 1.066.978 2.212 2.303 3.7 2.617.184.051.409.07.54-.053l1.209-1.229c.416-.316 1.018-.47 1.463-.212h.02l4.093 2.416c.6.376.663 1.104.233 1.547z" fill="#fff"/></g><defs><clipPath id="clip0"><path fill="#fff" d="M0 0h20v20H0z"/></clipPath></defs></svg>