<svg width="124" height="124" fill="none" xmlns="http://www.w3.org/2000/svg"><g clip-path="url(#clip0_53_6056)"><path d="M111.265 26.205l-48-16a4.003 4.003 0 00-2.53 0L12.812 26.18l-.005.002-.072.024-.04.017a3.95 3.95 0 00-.506.214c-.018.01-.038.017-.056.027a3.974 3.974 0 00-.563.364c-.144.11-.28.228-.41.355-.011.013-.021.026-.033.038a4.008 4.008 0 00-.33.392 3.989 3.989 0 00-.346.549c-.014.024-.024.049-.037.074a3.994 3.994 0 00-.203.488l-.017.047c-.056.177-.1.359-.131.543l-.018.114c-.028.19-.043.38-.045.572v40a4 4 0 108 0V35.55l16.792 5.598a31.986 31.986 0 0010.215 43.948 47.94 47.94 0 00-23.242 18.719 4.003 4.003 0 001.14 5.574 4.001 4.001 0 005.561-1.205 40.01 40.01 0 0167.066 0 4.008 4.008 0 002.528 1.745 4.006 4.006 0 003.019-.561 3.996 3.996 0 001.155-5.553 47.94 47.94 0 00-23.242-18.719 31.986 31.986 0 0010.215-43.949l22.058-7.352a4 4 0 000-7.59zM86 58a24.001 24.001 0 11-43.325-14.225l18.06 6.02a4.003 4.003 0 002.53 0l18.06-6.02A23.927 23.927 0 0186 58zm-4.649-22.666c-.01.003-.02.005-.03.01L62 41.783l-19.322-6.44a.118.118 0 00-.03-.01L26.65 30 62 18.216 97.351 30l-16 5.334z" fill="#fff"/></g><defs><clipPath id="clip0_53_6056"><path fill="#fff" d="M0 0h124v124H0z"/></clipPath></defs></svg>