<svg width="50" height="50" fill="none" xmlns="http://www.w3.org/2000/svg"><circle opacity=".3" cx="25" cy="25" r="24.5" stroke="#fff"/><path d="M32.394 23.979c.28 0 .549.107.747.299.198.192.309.451.309.722 0 .27-.111.53-.31.722a1.07 1.07 0 01-.746.3H20.158l4.534 4.383a1.02 1.02 0 01.31.723.993.993 0 01-.31.723 1.06 1.06 0 01-.747.3 1.09 1.09 0 01-.748-.3l-6.337-6.128a1.019 1.019 0 01-.31-.723.993.993 0 01.31-.723l6.337-6.127a1.06 1.06 0 01.748-.3 1.089 1.089 0 01.747.3 1.02 1.02 0 01.31.723.992.992 0 01-.31.723l-4.535 4.383h12.237z" fill="#fff"/></svg>