<svg width="50" height="50" fill="none" xmlns="http://www.w3.org/2000/svg"><circle opacity=".3" cx="25" cy="25" r="24.5" transform="rotate(-180 25 25)" stroke="#fff"/><path d="M17.606 26.021c-.28 0-.549-.107-.747-.299A1.004 1.004 0 0116.55 25c0-.27.111-.53.31-.722.197-.192.466-.3.746-.3h12.236l-4.534-4.383a1.02 1.02 0 01-.31-.723.993.993 0 01.31-.723 1.06 1.06 0 01.747-.3 1.09 1.09 0 01.748.3l6.337 6.128a1.019 1.019 0 01.31.723.993.993 0 01-.31.723l-6.337 6.127a1.06 1.06 0 01-.748.3 1.089 1.089 0 01-.747-.3 1.02 1.02 0 01-.31-.723.992.992 0 01.31-.723l4.535-4.383H17.605z" fill="#fff"/></svg>